<svg xmlns="http://www.w3.org/2000/svg" xmlns:xlink="http://www.w3.org/1999/xlink" viewBox="0 0 468.86 454.77"><defs><style>.cls-1{fill:url(#linear-gradient);}.cls-2{fill:url(#linear-gradient-2);}</style><linearGradient id="linear-gradient" y1="167.54" x2="369.23" y2="167.54" gradientUnits="userSpaceOnUse"><stop offset="0" stop-color="#53a7d2"/><stop offset="1" stop-color="#46a2d2"/></linearGradient><linearGradient id="linear-gradient-2" x1="273.16" y1="454.77" x2="273.16" y2="139.3" gradientUnits="userSpaceOnUse"><stop offset="0" stop-color="#104274"/><stop offset="1" stop-color="#0d679e"/></linearGradient></defs><g id="Layer_2" data-name="Layer 2"><g id="Layer_1-2" data-name="Layer 1"><path class="cls-1" d="M137.91,71.28a21.19,21.19,0,1,1-29.6-4.68,21.19,21.19,0,0,1,29.6,4.68Zm-126,76.22c41.61,9.67,91-.19,132.73-30.54S211.05,42.73,214.71.17c26.24,53.18,10.12,120-40.85,157S54.4,188.89,11.92,147.5ZM136.69,272.1a129.41,129.41,0,0,1,4.46,62.65q-6.3.33-12.67.33a243.89,243.89,0,0,1-30.32-1.89,184.27,184.27,0,0,0-8.73-45.74C73.47,238.34,39.35,201.37,0,184.73,58.69,176.22,117.22,212.18,136.69,272.1ZM30.3,306.45a21.17,21.17,0,1,1,15.87,14.21c-2.11-.77-4.2-1.57-6.29-2.39a21.11,21.11,0,0,1-9.58-11.82ZM294.66,157c-51-37-67.09-103.81-40.85-157,3.66,42.56,28.28,86.45,70.06,116.8a183.65,183.65,0,0,0,41.27,22.62,238.3,238.3,0,0,1-11.75,41.26A129.34,129.34,0,0,1,294.66,157Zm70.57-60.73A21.22,21.22,0,1,1,369,80.41c.09,1.61.17,3.23.23,4.85a21.15,21.15,0,0,1-4,11Z"/><path class="cls-2" d="M353.39,180.68a238.3,238.3,0,0,0,11.75-41.26l-.31-.12c30.94,12.1,63.18,14.68,91.76,8C429.15,174.08,390.82,185.76,353.39,180.68Zm26,106.51,0,0c16-49.11,50.08-86.09,89.43-102.72C410.17,176,351.64,212,332.17,271.86s6.74,123.39,59.23,151C369.32,386.27,363.4,336.3,379.4,287.19Zm45.4-7.31a21.18,21.18,0,1,0,13.6,26.7v0A21.17,21.17,0,0,0,424.8,279.88ZM234.51,343c-63,0-115.33,44.55-125.33,103,28-32.31,73.69-53.31,125.33-53.31v0c51.64,0,97.33,21,125.33,53.31C349.8,387.52,297.52,343,234.51,343Zm-.2,69.42a21.19,21.19,0,1,0,21.19,21.19A21.19,21.19,0,0,0,234.31,412.39ZM128.48,335.08a241.82,241.82,0,0,1-30.31-1.89c2,33.21-5.53,64.73-20.7,89.9,34.07-17.92,57.07-51,63.68-88.34Q134.85,335.08,128.48,335.08Z"/></g></g></svg>