<svg xmlns="http://www.w3.org/2000/svg" xmlns:xlink="http://www.w3.org/1999/xlink" viewBox="0 0 422.35 109.2"><defs><style>.cls-1{fill:url(#linear-gradient);}.cls-2{fill:url(#linear-gradient-2);}.cls-3{fill:#0d679e;}</style><linearGradient id="linear-gradient" y1="70.6" x2="88.7" y2="70.6" gradientTransform="matrix(1, 0, 0, -1, 0, 110.8)" gradientUnits="userSpaceOnUse"><stop offset="0" stop-color="#53a7d2"/><stop offset="1" stop-color="#46a2d2"/></linearGradient><linearGradient id="linear-gradient-2" x1="65.6" y1="1.6" x2="65.6" y2="77.4" gradientTransform="matrix(1, 0, 0, -1, 0, 110.8)" gradientUnits="userSpaceOnUse"><stop offset="0" stop-color="#104274"/><stop offset="1" stop-color="#0d679e"/></linearGradient></defs><g id="Layer_2" data-name="Layer 2"><g id="Layer_1-2" data-name="Layer 1"><path class="cls-1" d="M33.1,17.1A5.08,5.08,0,1,1,26,16a5,5,0,0,1,7.1,1.1ZM2.9,35.4c10,2.3,21.8,0,31.9-7.3S50.7,10.3,51.6.1c6.3,12.8,2.4,28.8-9.8,37.7A30.34,30.34,0,0,1,2.9,35.4ZM32.8,65.3a30.54,30.54,0,0,1,1.1,15c-1,.1-2,.1-3,.1a59.68,59.68,0,0,1-7.3-.5,42,42,0,0,0-2.1-11C17.7,57.1,9.5,48.2,0,44.2A30.43,30.43,0,0,1,32.8,65.3ZM7.3,73.5a5.09,5.09,0,1,1,6.4,3.3,4.57,4.57,0,0,1-2.6.1l-1.5-.6a4.63,4.63,0,0,1-2.3-2.8ZM70.8,37.7C58.6,28.8,54.7,12.8,61,0c.9,10.2,6.8,20.8,16.8,28a43.37,43.37,0,0,0,9.9,5.4,56,56,0,0,1-2.8,9.9A30,30,0,0,1,70.8,37.7ZM87.7,23.1a5.12,5.12,0,1,1,.9-3.8,4.87,4.87,0,0,0,.1,1.2,5.24,5.24,0,0,1-1,2.6Z"/><path class="cls-2" d="M84.9,43.3a56,56,0,0,0,2.8-9.9h-.1a37.47,37.47,0,0,0,22,1.9A29,29,0,0,1,84.9,43.3Zm6.2,25.6h0c3.8-11.8,12-20.7,21.5-24.7-14.1-2-28.1,6.6-32.8,21S81.4,94.8,94,101.4C88.7,92.7,87.3,80.7,91.1,68.9ZM102,67.2a5.09,5.09,0,1,0,3.3,6.4h0A5.09,5.09,0,0,0,102,67.2ZM56.3,82.3C41.2,82.3,28.6,93,26.2,107c6.7-7.8,17.7-12.8,30.1-12.8h0c12.4,0,23.4,5,30.1,12.8C84,93,71.5,82.3,56.3,82.3Zm0,16.7a5.1,5.1,0,1,0,5.1,5.1A5.06,5.06,0,0,0,56.3,99ZM30.9,80.4a59.68,59.68,0,0,1-7.3-.5,37.06,37.06,0,0,1-5,21.6A29.64,29.64,0,0,0,33.9,80.3C32.9,80.4,31.9,80.4,30.9,80.4Z"/><path class="cls-3" d="M138.6,43.34a13.41,13.41,0,0,1-4.92-.81,6.64,6.64,0,0,1-3.16-2.4,6.77,6.77,0,0,1-1.1-3.93,11.41,11.41,0,0,1,.1-1.41c.06-.48.15-1,.27-1.51l2,.41c-.09.53-.15,1-.18,1.37s-.06.72-.06,1a4.12,4.12,0,0,0,1.73,3.61,9.17,9.17,0,0,0,5.19,1.2,14.8,14.8,0,0,0,3.56-.37,6.4,6.4,0,0,0,2.31-1,1.76,1.76,0,0,0,.82-1.36,1,1,0,0,0-.33-.73,3.48,3.48,0,0,0-1.07-.6q-.75-.3-2-.75l.66-2.34c.59.18,1.18.39,1.77.62a8.08,8.08,0,0,1,1.6.84,3.9,3.9,0,0,1,1.15,1.21,3.47,3.47,0,0,1,.43,1.78,3.9,3.9,0,0,1-.45,1.88,4.8,4.8,0,0,1-1.26,1.45,7.32,7.32,0,0,1-1.9,1,12.86,12.86,0,0,1-2.41.61A17.33,17.33,0,0,1,138.6,43.34Zm-1.51,5.24a1.24,1.24,0,0,1-.93-.39,1.34,1.34,0,0,1,0-1.87,1.32,1.32,0,0,1,2.25,1,1.28,1.28,0,0,1-.38.92A1.24,1.24,0,0,1,137.09,48.58Zm3.06,0a1.24,1.24,0,0,1-.94-.39,1.37,1.37,0,0,1,0-1.87,1.39,1.39,0,0,1,1.87,0,1.34,1.34,0,0,1,0,1.87A1.24,1.24,0,0,1,140.15,48.58Zm3.95-12.16a5.26,5.26,0,0,1-3.8-1.25l1.5-1.76a2,2,0,0,0,.48.26,4.56,4.56,0,0,0,.81.2,6.41,6.41,0,0,0,1,.07h3.27v2.48Zm3.27,0V33.94c.15,0,.26.12.33.34a3.47,3.47,0,0,1,.1.89,3.61,3.61,0,0,1-.1.9C147.63,36.3,147.52,36.42,147.37,36.42Z"/><path class="cls-3" d="M147.37,36.42c-.16,0-.27-.12-.34-.35a3.79,3.79,0,0,1-.09-.92,3.39,3.39,0,0,1,.09-.88c.07-.22.18-.33.34-.33Zm0,0V33.94h3.71v2.48Zm3.71,0V33.94c.16,0,.27.12.34.34a3.53,3.53,0,0,1,.09.89,3.67,3.67,0,0,1-.09.9C151.35,36.3,151.24,36.42,151.08,36.42Z"/><path class="cls-3" d="M151.08,36.42c-.15,0-.26-.12-.33-.35a3.73,3.73,0,0,1-.1-.92,3.33,3.33,0,0,1,.1-.88q.1-.33.33-.33Zm0,0V33.94h3.72v2.48Zm3.72,0V33.94c.16,0,.27.12.33.34a3.07,3.07,0,0,1,.1.89,3.19,3.19,0,0,1-.1.9C155.07,36.3,155,36.42,154.8,36.42Z"/><path class="cls-3" d="M154.8,36.42c-.16,0-.27-.12-.33-.35a3.3,3.3,0,0,1-.1-.92,3,3,0,0,1,.1-.88q.09-.33.33-.33Zm0,0V33.94h3.72v2.48Zm3.72,0V33.94c.16,0,.27.12.33.34a3.07,3.07,0,0,1,.1.89,3.19,3.19,0,0,1-.1.9C158.79,36.3,158.68,36.42,158.52,36.42Z"/><path class="cls-3" d="M158.52,36.42c-.16,0-.27-.12-.33-.35a3.3,3.3,0,0,1-.1-.92,3,3,0,0,1,.1-.88q.09-.33.33-.33Zm0,0V33.94h3.72v2.48Zm3.72,0V33.94c.15,0,.26.12.33.34a3.47,3.47,0,0,1,.1.89,3.61,3.61,0,0,1-.1.9C162.5,36.3,162.39,36.42,162.24,36.42Z"/><path class="cls-3" d="M162.24,36.42c-.16,0-.27-.12-.34-.35a3.79,3.79,0,0,1-.09-.92,3.39,3.39,0,0,1,.09-.88c.07-.22.18-.33.34-.33Zm0,0V33.94H166v2.48Zm3.71,0V33.94c.16,0,.27.12.34.34a3.53,3.53,0,0,1,.09.89,3.67,3.67,0,0,1-.09.9C166.22,36.3,166.11,36.42,166,36.42Z"/><path class="cls-3" d="M166,36.42c-.15,0-.27-.12-.33-.35a3.3,3.3,0,0,1-.1-.92,3,3,0,0,1,.1-.88c.06-.22.18-.33.33-.33Zm0,0V33.94h3.72v2.48Zm3.72,0V33.94c.16,0,.27.12.33.34a3.07,3.07,0,0,1,.1.89,3.19,3.19,0,0,1-.1.9C169.94,36.3,169.83,36.42,169.67,36.42Z"/><path class="cls-3" d="M169.67,36.42c-.16,0-.27-.12-.33-.35a3.3,3.3,0,0,1-.1-.92,3,3,0,0,1,.1-.88q.09-.33.33-.33Zm0,0V33.94h3.72v2.48Zm3.72,0V33.94c.15,0,.27.12.33.34a3.47,3.47,0,0,1,.1.89,3.61,3.61,0,0,1-.1.9C173.66,36.3,173.54,36.42,173.39,36.42Z"/><path class="cls-3" d="M173.39,36.42c-.16,0-.27-.12-.34-.35a3.79,3.79,0,0,1-.09-.92,3.39,3.39,0,0,1,.09-.88c.07-.22.18-.33.34-.33Zm0,0V33.94h3.74a5.6,5.6,0,0,0,1.75-.24A2.57,2.57,0,0,0,180,33a1.37,1.37,0,0,0,.38-.93,1.59,1.59,0,0,0-.18-.71,3.67,3.67,0,0,0-.71-.88,18.09,18.09,0,0,0-1.56-1.33c-.69-.53-1.6-1.21-2.75-2l-1.08-.81,1.44-1.87L177,25.59c.93.68,1.74,1.3,2.44,1.83A14.42,14.42,0,0,1,181.18,29a5.73,5.73,0,0,1,1,1.48,4.07,4.07,0,0,1,.33,1.66,3.89,3.89,0,0,1-.71,2.34,4.49,4.49,0,0,1-1.93,1.47,7.13,7.13,0,0,1-2.75.51Zm.68-10.08V23.67l9.31-4.29v2.68Zm10.58,10.08A5.54,5.54,0,0,1,182.2,36a2.89,2.89,0,0,1-1.4-1.4,5.57,5.57,0,0,1-.45-2.39v0h2.17v0a3.24,3.24,0,0,0,.15,1.12.85.85,0,0,0,.61.52,4.81,4.81,0,0,0,1.37.14h.88v2.48Zm.88,0V33.94c.16,0,.27.12.33.34a3.07,3.07,0,0,1,.1.89,3.19,3.19,0,0,1-.1.9C185.8,36.3,185.69,36.42,185.53,36.42Z"/><path class="cls-3" d="M185.53,36.42c-.16,0-.27-.12-.34-.35a3.79,3.79,0,0,1-.09-.92,3.39,3.39,0,0,1,.09-.88c.07-.22.18-.33.34-.33Zm3-10.36h2.17V36.42h-5.18V33.94h3Zm-1.27,15.6A1.3,1.3,0,0,1,186,40.35a1.27,1.27,0,0,1,.37-1,1.31,1.31,0,0,1,.94-.36,1.27,1.27,0,0,1,1.31,1.31,1.28,1.28,0,0,1-.38.92A1.24,1.24,0,0,1,187.27,41.66Zm3,0A1.3,1.3,0,0,1,189,40.35a1.27,1.27,0,0,1,.37-1,1.31,1.31,0,0,1,.94-.36,1.27,1.27,0,0,1,1.31,1.31,1.28,1.28,0,0,1-.38.92A1.24,1.24,0,0,1,190.32,41.66Z"/><path class="cls-3" d="M193.28,39.75a4.82,4.82,0,0,0,1.66-.21,1.59,1.59,0,0,0,.9-.76,3,3,0,0,0,.28-1.38V26.06h2.17V37.4a5.38,5.38,0,0,1-.56,2.54,3.83,3.83,0,0,1-1.58,1.61,5.2,5.2,0,0,1-2.46.58Zm4.41-3.33V33.94h3.16v2.48Zm3.16,0V33.94c.16,0,.27.12.33.34a3.07,3.07,0,0,1,.1.89,3.19,3.19,0,0,1-.1.9C201.12,36.3,201,36.42,200.85,36.42Z"/><path class="cls-3" d="M200.85,36.42c-.16,0-.27-.12-.34-.35a3.79,3.79,0,0,1-.09-.92,3.39,3.39,0,0,1,.09-.88c.07-.22.18-.33.34-.33Zm0,0V33.94a3.34,3.34,0,0,0,1.72-.4,4.41,4.41,0,0,0,1.21-1.12,14.57,14.57,0,0,0,1-1.59c.33-.57.68-1.14,1-1.7a11,11,0,0,1,1.23-1.52,5.63,5.63,0,0,1,1.48-1.11,4,4,0,0,1,1.85-.42,3.7,3.7,0,0,1,1.94.48,3.82,3.82,0,0,1,1.3,1.29,6,6,0,0,1,.72,1.8,9,9,0,0,1,.23,2,11.9,11.9,0,0,1-.3,2.48,9.14,9.14,0,0,1-1,2.59l-1.89-1.23a7.33,7.33,0,0,0,.75-1.85,7.94,7.94,0,0,0,.26-2,4.17,4.17,0,0,0-.52-2.35,1.7,1.7,0,0,0-1.5-.75,2.28,2.28,0,0,0-1.17.31,4.18,4.18,0,0,0-1.15,1.08,22.19,22.19,0,0,0-1.42,2.13A15.66,15.66,0,0,1,205,34.5a5.45,5.45,0,0,1-1.8,1.44A5.24,5.24,0,0,1,200.85,36.42Zm12.35-2.17.11,2.47a21.38,21.38,0,0,1-3.35,0,11,11,0,0,1-2.48-.5,7.59,7.59,0,0,1-1.89-.94,9.07,9.07,0,0,1-1.54-1.3l1.57-1.71a6.67,6.67,0,0,0,1.79,1.3,7.63,7.63,0,0,0,2.41.65A19.19,19.19,0,0,0,213.2,34.25Z"/><path class="cls-3" d="M217.61,36.42V33.94h11.45v2.48Zm1.85-14.79v-1.5H224v1.5Zm3-.43a3.46,3.46,0,0,1-1.86-.44,1.43,1.43,0,0,1-.72-1.3,1.6,1.6,0,0,1,.35-1,2.27,2.27,0,0,1,.9-.67,3.17,3.17,0,0,1,1.2-.23,3.94,3.94,0,0,1,.77.08,3.64,3.64,0,0,1,.72.26l-.56,1.23-.4-.07-.4,0a2.19,2.19,0,0,0-.94.17c-.23.12-.35.25-.35.39s.12.27.35.39a2.19,2.19,0,0,0,.94.17Zm-1.78,15.22v-13h2.17v13Zm6.25,0V18.8h2.17V36.42Z"/><path class="cls-3" d="M232.5,36.42V18.8h2.17V36.42Z"/><path class="cls-3" d="M252.23,42.39a13.41,13.41,0,0,1-4.92-.81,6.57,6.57,0,0,1-3.16-2.39,6.77,6.77,0,0,1-1.1-3.93,9.75,9.75,0,0,1,.1-1.41c.06-.48.15-1,.27-1.52l2,.41c-.09.53-.15,1-.19,1.38s-.05.71-.05,1a4.1,4.1,0,0,0,1.73,3.6,9,9,0,0,0,5.19,1.21,14.76,14.76,0,0,0,3.56-.38,6.38,6.38,0,0,0,2.31-1,1.72,1.72,0,0,0,.81-1.35.92.92,0,0,0-.17-.57,1.49,1.49,0,0,0-.58-.46A8.1,8.1,0,0,0,257,35.7c-.44-.17-1-.37-1.63-.59s-1.33-.5-1.93-.77a7.55,7.55,0,0,1-1.6-.93,3.89,3.89,0,0,1-1.1-1.32,4.21,4.21,0,0,1-.39-1.88,4.67,4.67,0,0,1,.37-1.92,4.25,4.25,0,0,1,1-1.43,4.72,4.72,0,0,1,1.58-.9,6.14,6.14,0,0,1,2-.31,9,9,0,0,1,2.83.49A11.4,11.4,0,0,1,261,27.58l-1.22,2.05a8.51,8.51,0,0,0-2.41-1.18,7.74,7.74,0,0,0-2.06-.33,3.77,3.77,0,0,0-2,.5,1.75,1.75,0,0,0-.53,2.45,2.54,2.54,0,0,0,.78.7,6.23,6.23,0,0,0,1.13.53c.42.15.86.31,1.32.46s1.18.4,1.76.63a7.79,7.79,0,0,1,1.6.83,3.82,3.82,0,0,1,1.15,1.22,3.36,3.36,0,0,1,.43,1.77,3.87,3.87,0,0,1-.45,1.88,4.56,4.56,0,0,1-1.26,1.45,6.89,6.89,0,0,1-1.9,1,12.75,12.75,0,0,1-2.4.62A18.73,18.73,0,0,1,252.23,42.39Zm-1.53,5.24a1.3,1.3,0,0,1-1.31-1.31,1.22,1.22,0,0,1,.38-.94,1.26,1.26,0,0,1,.93-.37,1.3,1.3,0,0,1,.94.37,1.25,1.25,0,0,1,.37.94,1.29,1.29,0,0,1-.37.93A1.31,1.31,0,0,1,250.7,47.63Zm3.05,0a1.27,1.27,0,0,1-.93-.38,1.3,1.3,0,0,1-.38-.93A1.28,1.28,0,0,1,253.75,45a1.28,1.28,0,0,1,.94.37,1.25,1.25,0,0,1,.37.94,1.28,1.28,0,0,1-1.31,1.31Z"/><path class="cls-3" d="M268.69,36.42a5.73,5.73,0,0,1-2.92-.73,5.26,5.26,0,0,1-1.92-2,5.47,5.47,0,0,1-.69-2.72,5.78,5.78,0,0,1,.43-2.22A5.5,5.5,0,0,1,264.8,27a5.67,5.67,0,0,1,1.78-1.19,5.42,5.42,0,0,1,2.17-.43,6.87,6.87,0,0,1,2.21.36,12.36,12.36,0,0,1,1.92.78l-1,2.21a7.33,7.33,0,0,0-3.16-.88,3.58,3.58,0,0,0-1.74.42,3.35,3.35,0,0,0-1.23,1.13,2.94,2.94,0,0,0-.45,1.61,2.84,2.84,0,0,0,.42,1.53,2.89,2.89,0,0,0,1.17,1,3.91,3.91,0,0,0,1.77.37h3.09v2.48ZM264,42.13V39.66h4.19a2.79,2.79,0,0,0,1.92-.54,2.27,2.27,0,0,0,.58-1.72V26.51h2.17V37.4a5.36,5.36,0,0,1-.57,2.57,3.76,3.76,0,0,1-1.62,1.61,5.19,5.19,0,0,1-2.48.55Zm8.28-5.71V33.94h3.13v2.48Zm3.13,0V33.94c.16,0,.27.12.34.34a3.53,3.53,0,0,1,.09.89,3.67,3.67,0,0,1-.09.9C275.7,36.3,275.59,36.42,275.43,36.42Z"/><path class="cls-3" d="M275.43,36.42c-.15,0-.27-.12-.33-.35a3.73,3.73,0,0,1-.1-.92,3.33,3.33,0,0,1,.1-.88c.06-.22.18-.33.33-.33Zm0,0V33.94h3.72v2.48Zm3.72,0V33.94c.16,0,.27.12.33.34a3.07,3.07,0,0,1,.1.89,3.19,3.19,0,0,1-.1.9C279.42,36.3,279.31,36.42,279.15,36.42Z"/><path class="cls-3" d="M279.15,36.42c-.16,0-.27-.12-.33-.35a3.3,3.3,0,0,1-.1-.92,3,3,0,0,1,.1-.88q.09-.33.33-.33Zm0,0V33.94h3.72v2.48Zm3.72,0V33.94c.15,0,.27.12.33.34a3.07,3.07,0,0,1,.1.89,3.19,3.19,0,0,1-.1.9C283.14,36.3,283,36.42,282.87,36.42Z"/><path class="cls-3" d="M282.87,36.42c-.16,0-.27-.12-.34-.35a3.79,3.79,0,0,1-.09-.92,3.39,3.39,0,0,1,.09-.88c.07-.22.18-.33.34-.33Zm0,0V33.94h3.71v2.48Zm3.71,0V33.94c.16,0,.27.12.34.34a3.47,3.47,0,0,1,.1.89,3.61,3.61,0,0,1-.1.9C286.85,36.3,286.74,36.42,286.58,36.42Z"/><path class="cls-3" d="M286.58,36.42c-.15,0-.26-.12-.33-.35a3.73,3.73,0,0,1-.1-.92,3.33,3.33,0,0,1,.1-.88q.11-.33.33-.33Zm0,0V33.94h3.72v2.48Zm3.72,0V33.94c.16,0,.27.12.34.34a3.53,3.53,0,0,1,.09.89,3.67,3.67,0,0,1-.09.9C290.57,36.3,290.46,36.42,290.3,36.42Z"/><path class="cls-3" d="M290.3,36.42c-.15,0-.27-.12-.33-.35a3.3,3.3,0,0,1-.1-.92,3,3,0,0,1,.1-.88c.06-.22.18-.33.33-.33Zm0,0V33.94H294v2.48Zm3.72,0V33.94c.16,0,.27.12.33.34a3.07,3.07,0,0,1,.1.89,3.19,3.19,0,0,1-.1.9C294.29,36.3,294.18,36.42,294,36.42Z"/><path class="cls-3" d="M294,36.42c-.16,0-.27-.12-.33-.35a3.3,3.3,0,0,1-.1-.92,3,3,0,0,1,.1-.88q.09-.33.33-.33Zm0,0V33.94h3.72v2.48Zm3.72,0V33.94c.15,0,.27.12.33.34a3.47,3.47,0,0,1,.1.89,3.61,3.61,0,0,1-.1.9C298,36.3,297.89,36.42,297.74,36.42Z"/><path class="cls-3" d="M297.74,36.42c-.16,0-.27-.12-.34-.35a3.79,3.79,0,0,1-.09-.92,3.39,3.39,0,0,1,.09-.88c.07-.22.18-.33.34-.33Zm0,0V33.94h3.71v2.48Zm3.71,0V33.94c.16,0,.27.12.34.34a3.53,3.53,0,0,1,.09.89,3.67,3.67,0,0,1-.09.9C301.72,36.3,301.61,36.42,301.45,36.42Z"/><path class="cls-3" d="M301.45,36.42c-.15,0-.26-.12-.33-.35a3.73,3.73,0,0,1-.1-.92,3.33,3.33,0,0,1,.1-.88q.11-.33.33-.33Zm0,0V33.94H305a7.61,7.61,0,0,0,2.11-.33,15,15,0,0,0,2.24-.86,14.53,14.53,0,0,0,2-1.15,8,8,0,0,0,1.47-1.2,1.6,1.6,0,0,0,.55-1,1,1,0,0,0-.51-.75,4.68,4.68,0,0,0-1.44-.57,9.08,9.08,0,0,0-2.13-.23,10.6,10.6,0,0,0-1.91.17,16.2,16.2,0,0,0-1.94.52l-.86,1.12-1.39-.43,1.91-3.12a15.55,15.55,0,0,1,1.91-.51,10.89,10.89,0,0,1,2.3-.22,10.06,10.06,0,0,1,3.27.48,5.18,5.18,0,0,1,2.18,1.35,2.92,2.92,0,0,1,.78,2,3.74,3.74,0,0,1-.52,1.88,7,7,0,0,1-1.41,1.71,12.67,12.67,0,0,1-2,1.45,19.67,19.67,0,0,1-2.3,1.14,15,15,0,0,1-2.31.74,9.33,9.33,0,0,1-2,.26Zm11.56,0a10.66,10.66,0,0,1-4.45-.91A9.36,9.36,0,0,1,305.2,33a9.92,9.92,0,0,1-2-3.77L305.15,28a6.86,6.86,0,0,0,1.4,3.18,7,7,0,0,0,2.74,2.08,9.11,9.11,0,0,0,3.72.73h4.5v2.48Zm-3.65-13.93a1.45,1.45,0,0,1-1-2.47,1.42,1.42,0,0,1,1-.41,1.39,1.39,0,0,1,1,.41,1.49,1.49,0,0,1,0,2.05A1.36,1.36,0,0,1,309.36,22.49Zm8.15,13.93V33.94c.15,0,.26.12.33.34a3.47,3.47,0,0,1,.1.89,3.61,3.61,0,0,1-.1.9C317.77,36.3,317.66,36.42,317.51,36.42Z"/><path class="cls-3" d="M317.51,36.42c-.16,0-.27-.12-.34-.35a3.79,3.79,0,0,1-.09-.92,3.39,3.39,0,0,1,.09-.88c.07-.22.18-.33.34-.33Zm0,0V33.94h.66a4.76,4.76,0,0,0,1.38-.14.86.86,0,0,0,.6-.52,3.24,3.24,0,0,0,.15-1.12V18.8h2.17V32.16a5.57,5.57,0,0,1-.45,2.39,2.89,2.89,0,0,1-1.4,1.4,5.57,5.57,0,0,1-2.45.47Zm7.09,0a5.54,5.54,0,0,1-2.45-.47,2.89,2.89,0,0,1-1.4-1.4,5.57,5.57,0,0,1-.45-2.39h2.17a3.24,3.24,0,0,0,.15,1.12.85.85,0,0,0,.61.52,4.77,4.77,0,0,0,1.37.14H325v2.48Zm.43,0V33.94c.15,0,.26.12.33.34a3.47,3.47,0,0,1,.1.89,3.61,3.61,0,0,1-.1.9C325.29,36.3,325.18,36.42,325,36.42Z"/><path class="cls-3" d="M325,36.42c-.16,0-.27-.12-.34-.35a3.79,3.79,0,0,1-.09-.92,3.39,3.39,0,0,1,.09-.88c.07-.22.18-.33.34-.33Zm0,0V33.94h2.79V18.8H330V36.42Z"/><path class="cls-3" d="M333,36.42V18.8h2.17V36.42Z"/><path class="cls-3" d="M342.69,39.75a4.73,4.73,0,0,0,1.65-.21,1.58,1.58,0,0,0,.91-.76,3.08,3.08,0,0,0,.27-1.38V26.06h2.17V37.4a5.38,5.38,0,0,1-.55,2.54,3.89,3.89,0,0,1-1.58,1.61,5.2,5.2,0,0,1-2.46.58Zm3.93-16.57a1.43,1.43,0,0,1-1.44-1.44,1.36,1.36,0,0,1,.42-1,1.42,1.42,0,0,1,1-.41,1.4,1.4,0,0,1,1.44,1.44,1.42,1.42,0,0,1-.41,1A1.36,1.36,0,0,1,346.62,23.18Zm.47,13.24V33.94h3.16v2.48Zm3.16,0V33.94c.16,0,.27.12.34.34a3.53,3.53,0,0,1,.09.89,3.67,3.67,0,0,1-.09.9C350.52,36.3,350.41,36.42,350.25,36.42Z"/><path class="cls-3" d="M350.25,36.42c-.15,0-.27-.12-.33-.35a3.73,3.73,0,0,1-.1-.92,3.33,3.33,0,0,1,.1-.88c.06-.22.18-.33.33-.33Zm0,0V33.94H354v2.48Zm3.72,0V33.94c.16,0,.27.12.33.34a3.07,3.07,0,0,1,.1.89,3.19,3.19,0,0,1-.1.9C354.24,36.3,354.13,36.42,354,36.42Z"/><path class="cls-3" d="M354,36.42c-.16,0-.27-.12-.33-.35a3.3,3.3,0,0,1-.1-.92,3,3,0,0,1,.1-.88q.09-.33.33-.33Zm0,0V33.94h3.72v2.48Zm3.72,0V33.94c.15,0,.27.12.33.34a3.47,3.47,0,0,1,.1.89,3.61,3.61,0,0,1-.1.9C358,36.3,357.84,36.42,357.69,36.42Z"/><path class="cls-3" d="M357.69,36.42c-.16,0-.27-.12-.34-.35a3.79,3.79,0,0,1-.09-.92,3.39,3.39,0,0,1,.09-.88c.07-.22.18-.33.34-.33Zm0,0V33.94h3.71v2.48Zm3.71,0V33.94c.16,0,.27.12.34.34a3.53,3.53,0,0,1,.09.89,3.67,3.67,0,0,1-.09.9C361.67,36.3,361.56,36.42,361.4,36.42Z"/><path class="cls-3" d="M361.4,36.42c-.15,0-.26-.12-.33-.35a3.73,3.73,0,0,1-.1-.92,3.33,3.33,0,0,1,.1-.88q.1-.33.33-.33Zm0,0V33.94h3.72v2.48Zm3.72,0V33.94c.16,0,.27.12.33.34a3.07,3.07,0,0,1,.1.89,3.19,3.19,0,0,1-.1.9C365.39,36.3,365.28,36.42,365.12,36.42Z"/><path class="cls-3" d="M365.12,36.42c-.16,0-.27-.12-.33-.35a3.3,3.3,0,0,1-.1-.92,3,3,0,0,1,.1-.88q.09-.33.33-.33Zm0,0V33.94h3.72v2.48Zm3.72,0V33.94c.16,0,.27.12.33.34a3.07,3.07,0,0,1,.1.89,3.19,3.19,0,0,1-.1.9C369.11,36.3,369,36.42,368.84,36.42Z"/><path class="cls-3" d="M368.84,36.42c-.16,0-.27-.12-.33-.35a3.3,3.3,0,0,1-.1-.92,3,3,0,0,1,.1-.88q.09-.33.33-.33Zm0,0V33.94h3.72v2.48Zm3.72,0V33.94c.15,0,.26.12.33.34a3.47,3.47,0,0,1,.1.89,3.61,3.61,0,0,1-.1.9C372.82,36.3,372.71,36.42,372.56,36.42Z"/><path class="cls-3" d="M372.56,36.42c-.16,0-.27-.12-.34-.35a3.79,3.79,0,0,1-.09-.92,3.39,3.39,0,0,1,.09-.88c.07-.22.18-.33.34-.33Zm0,0V33.94h3.71v2.48Zm3.71,0V33.94c.16,0,.27.12.34.34a3.53,3.53,0,0,1,.09.89,3.67,3.67,0,0,1-.09.9C376.54,36.3,376.43,36.42,376.27,36.42Z"/><path class="cls-3" d="M376.27,36.42c-.15,0-.27-.12-.33-.35a3.73,3.73,0,0,1-.1-.92,3.33,3.33,0,0,1,.1-.88c.06-.22.18-.33.33-.33Zm0,0V33.94H380a5.56,5.56,0,0,0,1.75-.24,2.61,2.61,0,0,0,1.1-.67,1.36,1.36,0,0,0,.37-.93,1.59,1.59,0,0,0-.18-.71,3.43,3.43,0,0,0-.71-.88,19.31,19.31,0,0,0-1.55-1.33c-.69-.53-1.61-1.21-2.76-2L377,26.34l1.44-1.87,1.5,1.12c.94.68,1.75,1.3,2.44,1.83A13.67,13.67,0,0,1,384.06,29a5.49,5.49,0,0,1,1,1.48,4.07,4.07,0,0,1,.33,1.66,3.88,3.88,0,0,1-.7,2.34,4.52,4.52,0,0,1-1.94,1.47,7.06,7.06,0,0,1-2.75.51ZM377,26.34V23.67l9.31-4.29v2.68Z"/><path class="cls-3" d="M387.55,39.75a4.82,4.82,0,0,0,1.66-.21,1.59,1.59,0,0,0,.9-.76,3,3,0,0,0,.28-1.38V26.06h2.17V37.4a5.38,5.38,0,0,1-.56,2.54,3.83,3.83,0,0,1-1.58,1.61,5.2,5.2,0,0,1-2.46.58ZM392,36.42V33.94h3.16v2.48Zm3.16,0V33.94c.15,0,.27.12.33.34a3.07,3.07,0,0,1,.1.89,3.19,3.19,0,0,1-.1.9C395.39,36.3,395.27,36.42,395.12,36.42Z"/><path class="cls-3" d="M395.12,36.42c-.16,0-.27-.12-.34-.35a3.79,3.79,0,0,1-.09-.92,3.39,3.39,0,0,1,.09-.88c.07-.22.18-.33.34-.33Zm0,0V33.94a3.34,3.34,0,0,0,1.72-.4,4.41,4.41,0,0,0,1.21-1.12,14.57,14.57,0,0,0,1-1.59c.33-.57.68-1.14,1.05-1.7a10.33,10.33,0,0,1,1.23-1.52,5.63,5.63,0,0,1,1.48-1.11,4,4,0,0,1,1.85-.42,3.7,3.7,0,0,1,1.94.48,3.82,3.82,0,0,1,1.3,1.29,6,6,0,0,1,.72,1.8,9,9,0,0,1,.23,2,11.9,11.9,0,0,1-.3,2.48,9.14,9.14,0,0,1-1,2.59l-1.89-1.23a7.33,7.33,0,0,0,.75-1.85,7.94,7.94,0,0,0,.26-2,4.17,4.17,0,0,0-.52-2.35,1.7,1.7,0,0,0-1.5-.75,2.28,2.28,0,0,0-1.17.31,4.18,4.18,0,0,0-1.15,1.08,20.45,20.45,0,0,0-1.42,2.13,15.66,15.66,0,0,1-1.69,2.43,5.45,5.45,0,0,1-1.8,1.44A5.24,5.24,0,0,1,395.12,36.42Zm12.35-2.17.11,2.47a21.38,21.38,0,0,1-3.35,0,11,11,0,0,1-2.48-.5,7.59,7.59,0,0,1-1.89-.94,9.07,9.07,0,0,1-1.54-1.3l1.57-1.71a6.67,6.67,0,0,0,1.79,1.3,7.63,7.63,0,0,0,2.41.65A19.16,19.16,0,0,0,407.47,34.25ZM411,36.42a5,5,0,0,1-2.3-.47,2.85,2.85,0,0,1-1.34-1.4,5.57,5.57,0,0,1-.45-2.39v-.51h2v.51a3.24,3.24,0,0,0,.15,1.12.85.85,0,0,0,.61.52,4.81,4.81,0,0,0,1.37.14h.88v2.48Zm.88,0V33.94c.16,0,.27.12.33.34a3.07,3.07,0,0,1,.1.89,3.19,3.19,0,0,1-.1.9C412.15,36.3,412,36.42,411.88,36.42Z"/><path class="cls-3" d="M411.88,36.42c-.16,0-.27-.12-.33-.35a3.3,3.3,0,0,1-.1-.92,3,3,0,0,1,.1-.88q.09-.33.33-.33Zm0,0V33.94h2.79V18.8h2.17V36.42Z"/><path class="cls-3" d="M419.85,36.42V18.8H422V36.42Z"/><path class="cls-3" d="M130.21,76.86h2.95l5.2,10.2,5.15-10.2h3v15h-2.34l0-11.5-4.94,9.93h-1.61l-5-9.93V91.9h-2.34Z"/><path class="cls-3" d="M155.16,80.4a6.52,6.52,0,0,1,3.11.73,5.37,5.37,0,0,1,2.09,2,6.48,6.48,0,0,1,0,6,5.19,5.19,0,0,1-2.09,2,6.41,6.41,0,0,1-3.11.73,6.47,6.47,0,0,1-3.12-.73,5.16,5.16,0,0,1-2.1-2,6.48,6.48,0,0,1,0-6,5.33,5.33,0,0,1,2.1-2A6.59,6.59,0,0,1,155.16,80.4Zm0,2a3.47,3.47,0,0,0-1.83.48,3.28,3.28,0,0,0-1.23,1.35,4.17,4.17,0,0,0-.44,2,4.24,4.24,0,0,0,.44,2,3.28,3.28,0,0,0,1.23,1.35,3.47,3.47,0,0,0,1.83.48,3.43,3.43,0,0,0,1.82-.48,3.33,3.33,0,0,0,1.22-1.35,4.37,4.37,0,0,0,.44-2,4.3,4.3,0,0,0-.44-2A3.33,3.33,0,0,0,157,82.88,3.43,3.43,0,0,0,155.16,82.4Z"/><path class="cls-3" d="M163.8,76h2.47v16H163.8Zm8.49,9.5a2.92,2.92,0,0,0-.73-2.09,2.67,2.67,0,0,0-2-.77,3,3,0,0,0-2.4,1.08,4,4,0,0,0-.87,2.62h-.69a8.19,8.19,0,0,1,.6-3.42A3.94,3.94,0,0,1,167.89,81a5.52,5.52,0,0,1,2.61-.59,4.59,4.59,0,0,1,2.29.54,3.54,3.54,0,0,1,1.46,1.51,5.08,5.08,0,0,1,.51,2.36V91.9h-2.47Z"/><path class="cls-3" d="M181.81,86.81a3.48,3.48,0,0,0-1.79.36,1.31,1.31,0,0,0-.58,1.2,1.55,1.55,0,0,0,.59,1.27,2.52,2.52,0,0,0,1.62.47,4,4,0,0,0,1.66-.32,2.87,2.87,0,0,0,1.16-.87,2,2,0,0,0,.45-1.23l.47,2.08a3.54,3.54,0,0,1-1.63,1.68,5.72,5.72,0,0,1-2.62.56,4.46,4.46,0,0,1-2.13-.48,3.38,3.38,0,0,1-1.39-1.28,3.33,3.33,0,0,1-.5-1.79A3,3,0,0,1,178.25,86a5,5,0,0,1,3.19-.95h3.78v1.77Zm3.09-2.15a2.21,2.21,0,0,0-.69-1.74,2.93,2.93,0,0,0-2-.63,4.94,4.94,0,0,0-1.66.3,7.78,7.78,0,0,0-1.71.89l-1-1.59a12.72,12.72,0,0,1,1.5-.82,7.32,7.32,0,0,1,1.52-.5,9.49,9.49,0,0,1,1.9-.17,4.93,4.93,0,0,1,3.4,1.07,3.79,3.79,0,0,1,1.22,2.93l0,7.5h-2.43Z"/><path class="cls-3" d="M190.66,80.49h2.45V91.9h-2.45Zm8.31,5a3,3,0,0,0-.7-2.11,2.59,2.59,0,0,0-2-.77,3,3,0,0,0-2.33,1.1,4,4,0,0,0-.85,2.6h-.69a8.3,8.3,0,0,1,.59-3.4A3.93,3.93,0,0,1,194.69,81a5.33,5.33,0,0,1,2.57-.59,4.4,4.4,0,0,1,2.24.54,3.68,3.68,0,0,1,1.44,1.51,5.08,5.08,0,0,1,.51,2.36V91.9H199Zm8.32,0a2.93,2.93,0,0,0-.72-2.11,2.6,2.6,0,0,0-2-.77,2.92,2.92,0,0,0-2.3,1.1,4.09,4.09,0,0,0-.83,2.6h-.71a8.14,8.14,0,0,1,.59-3.4A3.92,3.92,0,0,1,203,81a5.36,5.36,0,0,1,2.57-.59,4.46,4.46,0,0,1,2.25.54,3.68,3.68,0,0,1,1.44,1.51,5.2,5.2,0,0,1,.5,2.36V91.9h-2.47Z"/><path class="cls-3" d="M213.07,80.49h2.45V91.9h-2.45Zm8.32,5a3,3,0,0,0-.71-2.11,2.58,2.58,0,0,0-2-.77,3,3,0,0,0-2.33,1.1,4,4,0,0,0-.85,2.6h-.69a8.3,8.3,0,0,1,.59-3.4A4,4,0,0,1,217.1,81a5.33,5.33,0,0,1,2.57-.59,4.4,4.4,0,0,1,2.24.54,3.56,3.56,0,0,1,1.44,1.51,5.08,5.08,0,0,1,.51,2.36V91.9h-2.47Zm8.31,0a2.93,2.93,0,0,0-.72-2.11,2.6,2.6,0,0,0-2-.77,2.88,2.88,0,0,0-2.29,1.1,4,4,0,0,0-.84,2.6h-.71a8.3,8.3,0,0,1,.59-3.4A3.88,3.88,0,0,1,225.42,81,5.29,5.29,0,0,1,228,80.4a4.41,4.41,0,0,1,2.25.54,3.68,3.68,0,0,1,1.44,1.51,5.08,5.08,0,0,1,.5,2.36V91.9H229.7Z"/><path class="cls-3" d="M243.39,85.37a3.59,3.59,0,0,0-.44-1.65,2.74,2.74,0,0,0-1.11-1,3.41,3.41,0,0,0-1.63-.38,3.26,3.26,0,0,0-1.79.48,3.2,3.2,0,0,0-1.2,1.32,4.42,4.42,0,0,0-.43,2,4.57,4.57,0,0,0,.47,2.12,3.34,3.34,0,0,0,1.28,1.4,3.67,3.67,0,0,0,1.91.49,4.31,4.31,0,0,0,3.22-1.35L245,90.05a5.7,5.7,0,0,1-2,1.43,6.82,6.82,0,0,1-2.69.5,6.17,6.17,0,0,1-3.07-.73,5.17,5.17,0,0,1-2-2,6.59,6.59,0,0,1,0-6,5.26,5.26,0,0,1,2-2,6.39,6.39,0,0,1,3-.75,5.7,5.7,0,0,1,3.24.83,4.43,4.43,0,0,1,1.74,2.33,8.87,8.87,0,0,1,.37,3.57h-9.13V85.37Z"/><path class="cls-3" d="M252.48,80.38a4.93,4.93,0,0,1,2.7.7,4.51,4.51,0,0,1,1.69,2,7,7,0,0,1,.57,3.1,7.44,7.44,0,0,1-.55,3.12,4.47,4.47,0,0,1-1.69,2,5,5,0,0,1-2.68.7,5.52,5.52,0,0,1-2.87-.74,5.18,5.18,0,0,1-1.92-2.07,6.46,6.46,0,0,1-.69-3,6.38,6.38,0,0,1,.69-3,5.19,5.19,0,0,1,1.91-2A5.44,5.44,0,0,1,252.48,80.38Zm.56,2a3.39,3.39,0,0,0-1.83.49A3.33,3.33,0,0,0,250,84.24a4.53,4.53,0,0,0-.47,2,4.44,4.44,0,0,0,.47,2,3.31,3.31,0,0,0,1.23,1.36,3.39,3.39,0,0,0,1.83.49,3.35,3.35,0,0,0,1.82-.49,3.26,3.26,0,0,0,1.24-1.36,4.3,4.3,0,0,0,.44-2,4.37,4.37,0,0,0-.44-2,3.26,3.26,0,0,0-1.24-1.36A3.35,3.35,0,0,0,253,82.38Zm3.5-6.43H259v16h-2.47Z"/><path class="cls-3" d="M264,75.78a1.45,1.45,0,0,1,1,2.46,1.45,1.45,0,0,1-2-2A1.42,1.42,0,0,1,264,75.78Zm-1.23,4.71h2.45V91.9h-2.45Z"/><path class="cls-3" d="M272.61,86.81a3.46,3.46,0,0,0-1.78.36,1.31,1.31,0,0,0-.58,1.2,1.55,1.55,0,0,0,.59,1.27,2.5,2.5,0,0,0,1.62.47,4,4,0,0,0,1.66-.32,2.87,2.87,0,0,0,1.16-.87,2,2,0,0,0,.45-1.23l.47,2.08a3.59,3.59,0,0,1-1.63,1.68A5.72,5.72,0,0,1,272,92a4.46,4.46,0,0,1-2.13-.48,3.47,3.47,0,0,1-1.4-1.28,3.32,3.32,0,0,1-.49-1.79A3,3,0,0,1,269.06,86a5,5,0,0,1,3.19-.95H276v1.77Zm3.1-2.15a2.21,2.21,0,0,0-.69-1.74,2.93,2.93,0,0,0-2-.63,5,5,0,0,0-1.67.3,8,8,0,0,0-1.7.89l-1-1.59a12.72,12.72,0,0,1,1.5-.82,7.43,7.43,0,0,1,1.51-.5,9.67,9.67,0,0,1,1.91-.17,4.93,4.93,0,0,1,3.4,1.07,3.79,3.79,0,0,1,1.22,2.93l0,7.5h-2.43Z"/><path class="cls-3" d="M287.09,82.66h6.64v2.06h-6.64Z"/><path class="cls-3" d="M308.16,91.25a9.41,9.41,0,0,1-2.43-.3,5.82,5.82,0,0,1-2-.88,4.15,4.15,0,0,1-1.28-1.45,4.25,4.25,0,0,1-.46-2,4.51,4.51,0,0,1,.59-2.31,5.37,5.37,0,0,1,1.65-1.71,9.87,9.87,0,0,1,2.49-1.15,17.35,17.35,0,0,1,3.07-.63l.26,2.45a16.78,16.78,0,0,0-2,.35,10.45,10.45,0,0,0-1.91.66,4.37,4.37,0,0,0-1.42,1,1.91,1.91,0,0,0-.54,1.35,1.63,1.63,0,0,0,.54,1.25,3.26,3.26,0,0,0,1.44.72,8.14,8.14,0,0,0,2,.22,10.3,10.3,0,0,0,1.52-.1,9.52,9.52,0,0,0,1.3-.31l.64,2.37a10.85,10.85,0,0,1-1.68.39A13.42,13.42,0,0,1,308.16,91.25Zm-2.32-13.38a1.33,1.33,0,0,1-.93-2.26,1.39,1.39,0,0,1,1.87,0,1.38,1.38,0,0,1,0,1.88A1.27,1.27,0,0,1,305.84,77.87Zm3.05,0a1.33,1.33,0,0,1-.93-2.26,1.39,1.39,0,0,1,1.87,0,1.38,1.38,0,0,1,0,1.88A1.27,1.27,0,0,1,308.89,77.87Zm5.1,14a5.69,5.69,0,0,1-2.45-.46,3,3,0,0,1-1.4-1.41,5.57,5.57,0,0,1-.45-2.39V80.21h2.17v7.43a3.24,3.24,0,0,0,.15,1.12.89.89,0,0,0,.61.53,5.21,5.21,0,0,0,1.37.14h.88V91.9Zm.88,0V89.43q.24,0,.33.33a3.07,3.07,0,0,1,.1.89,3.22,3.22,0,0,1-.1.91C315.14,91.78,315,91.9,314.87,91.9Z"/><path class="cls-3" d="M314.87,91.9c-.16,0-.27-.12-.34-.34a3.83,3.83,0,0,1-.09-.93,3.39,3.39,0,0,1,.09-.88c.07-.22.18-.32.34-.32Zm0,0V89.43h3.72V91.9Zm3.72,0V89.43q.23,0,.33.33a3.47,3.47,0,0,1,.1.89,3.64,3.64,0,0,1-.1.91C318.85,91.78,318.74,91.9,318.59,91.9Z"/><path class="cls-3" d="M318.59,91.9c-.16,0-.27-.12-.34-.34a3.83,3.83,0,0,1-.09-.93,3.39,3.39,0,0,1,.09-.88c.07-.22.18-.32.34-.32Zm0,0V89.43h3.71V91.9Zm3.71,0V89.43c.16,0,.27.11.34.33a3.53,3.53,0,0,1,.09.89,3.71,3.71,0,0,1-.09.91C322.57,91.78,322.46,91.9,322.3,91.9Z"/><path class="cls-3" d="M322.3,91.9c-.15,0-.27-.12-.33-.34a3.33,3.33,0,0,1-.1-.93,3,3,0,0,1,.1-.88c.06-.22.18-.32.33-.32Zm0,0V89.43H326V91.9Zm3.72,0V89.43q.24,0,.33.33a3.07,3.07,0,0,1,.1.89,3.22,3.22,0,0,1-.1.91C326.29,91.78,326.18,91.9,326,91.9Z"/><path class="cls-3" d="M326,91.9c-.16,0-.27-.12-.33-.34a3.33,3.33,0,0,1-.1-.93,3,3,0,0,1,.1-.88c.06-.22.17-.32.33-.32Zm0,0V89.43h3.72V91.9Zm3.72,0V89.43c.15,0,.27.11.33.33a3.47,3.47,0,0,1,.1.89,3.64,3.64,0,0,1-.1.91C330,91.78,329.89,91.9,329.74,91.9Z"/><path class="cls-3" d="M329.74,91.9c-.16,0-.27-.12-.34-.34a3.83,3.83,0,0,1-.09-.93,3.39,3.39,0,0,1,.09-.88c.07-.22.18-.32.34-.32Zm0,0V89.43h3.71V91.9Zm3.71,0V89.43c.16,0,.27.11.34.33a3.53,3.53,0,0,1,.09.89,3.71,3.71,0,0,1-.09.91C333.72,91.78,333.61,91.9,333.45,91.9Z"/><path class="cls-3" d="M333.45,91.9c-.15,0-.26-.12-.33-.34a3.76,3.76,0,0,1-.1-.93,3.33,3.33,0,0,1,.1-.88c.07-.22.18-.32.33-.32Zm0,0V89.43h3.72V91.9Zm3.72,0V89.43q.24,0,.33.33a3.07,3.07,0,0,1,.1.89,3.22,3.22,0,0,1-.1.91C337.44,91.78,337.33,91.9,337.17,91.9Z"/><path class="cls-3" d="M337.17,91.9c-.16,0-.27-.12-.33-.34a3.33,3.33,0,0,1-.1-.93,3,3,0,0,1,.1-.88c.06-.22.17-.32.33-.32Zm0,0V89.43h3.72V91.9Zm3.72,0V89.43q.24,0,.33.33a3.07,3.07,0,0,1,.1.89,3.22,3.22,0,0,1-.1.91C341.16,91.78,341.05,91.9,340.89,91.9Z"/><path class="cls-3" d="M340.89,91.9c-.16,0-.27-.12-.33-.34a3.33,3.33,0,0,1-.1-.93,3,3,0,0,1,.1-.88c.06-.22.17-.32.33-.32Zm0,0V89.43h3.72V91.9Zm3.72,0V89.43q.22,0,.33.33a3.47,3.47,0,0,1,.1.89,3.64,3.64,0,0,1-.1.91C344.87,91.78,344.76,91.9,344.61,91.9Z"/><path class="cls-3" d="M344.61,91.9c-.16,0-.27-.12-.34-.34a3.83,3.83,0,0,1-.09-.93,3.39,3.39,0,0,1,.09-.88c.07-.22.18-.32.34-.32Zm3-10.36h2.17V91.9h-5.17V89.43h3Zm-1.26,15.6a1.27,1.27,0,0,1-.94-.38,1.29,1.29,0,0,1-.37-.93,1.24,1.24,0,0,1,.37-.94,1.37,1.37,0,0,1,1.87,0,1.24,1.24,0,0,1,.38.94,1.3,1.3,0,0,1-.38.93A1.27,1.27,0,0,1,346.35,97.14Zm3,0a1.27,1.27,0,0,1-.94-.38,1.29,1.29,0,0,1-.37-.93,1.24,1.24,0,0,1,.37-.94,1.37,1.37,0,0,1,1.87,0,1.24,1.24,0,0,1,.38.94,1.3,1.3,0,0,1-.38.93A1.27,1.27,0,0,1,349.4,97.14Z"/><path class="cls-3" d="M352.15,91.9V89.43h10.16V91.9Zm8.44,0a10.32,10.32,0,0,0-.81-4.11,8,8,0,0,0-2.27-3A8.44,8.44,0,0,0,354,83.11l.5-2.41a10.22,10.22,0,0,1,4.38,2.14,10.6,10.6,0,0,1,2.87,3.87,12.89,12.89,0,0,1,1,5.19Zm-.23,0V89.43h4.12V91.9Zm4.12,0V89.43c.16,0,.27.11.34.33a3.53,3.53,0,0,1,.09.89,3.71,3.71,0,0,1-.09.91C364.75,91.78,364.64,91.9,364.48,91.9Z"/><path class="cls-3" d="M364.48,91.9c-.16,0-.27-.12-.33-.34a3.33,3.33,0,0,1-.1-.93,3,3,0,0,1,.1-.88c.06-.22.17-.32.33-.32Zm0,0V89.43A3.34,3.34,0,0,0,366.2,89a4.29,4.29,0,0,0,1.22-1.12,14.57,14.57,0,0,0,1-1.59c.33-.57.68-1.14,1.05-1.7a11.44,11.44,0,0,1,1.22-1.52A5.68,5.68,0,0,1,372.2,82a4,4,0,0,1,1.84-.42,3.67,3.67,0,0,1,1.95.49,3.73,3.73,0,0,1,1.3,1.29,5.8,5.8,0,0,1,.72,1.79,9,9,0,0,1,.22,2,11.82,11.82,0,0,1-.3,2.48,9.3,9.3,0,0,1-1,2.59L375.05,91a7.91,7.91,0,0,0,.76-1.85,8,8,0,0,0,.25-2,4.23,4.23,0,0,0-.51-2.34A1.71,1.71,0,0,0,374,84a2.34,2.34,0,0,0-1.17.32,4.1,4.1,0,0,0-1.15,1.07,19.86,19.86,0,0,0-1.41,2.14A18.41,18.41,0,0,1,368.62,90a5.64,5.64,0,0,1-1.81,1.44A5.38,5.38,0,0,1,364.48,91.9Zm12.36-2.17L377,92.2a23,23,0,0,1-3.36,0,11.06,11.06,0,0,1-2.48-.51,7.57,7.57,0,0,1-1.89-.93,11.16,11.16,0,0,1-1.54-1.3l1.57-1.72a6.36,6.36,0,0,0,1.8,1.3,7.56,7.56,0,0,0,2.4.65A19.28,19.28,0,0,0,376.84,89.73Zm3.52,2.17a5.14,5.14,0,0,1-2.3-.46A2.92,2.92,0,0,1,376.72,90a5.73,5.73,0,0,1-.44-2.39v-.51h2v.51a3,3,0,0,0,.16,1.12.87.87,0,0,0,.61.53,5.13,5.13,0,0,0,1.36.14h.88V91.9Zm.88,0V89.43c.16,0,.27.11.34.33a3.53,3.53,0,0,1,.09.89,3.71,3.71,0,0,1-.09.91C381.51,91.78,381.4,91.9,381.24,91.9Z"/><path class="cls-3" d="M381.24,91.9c-.15,0-.27-.12-.33-.34a3.76,3.76,0,0,1-.1-.93,3.33,3.33,0,0,1,.1-.88c.06-.22.18-.32.33-.32Zm0,0V89.43h12.6l-.39,2.47Zm9.48,0V86.27a3,3,0,0,0-.51-1.73,3.26,3.26,0,0,0-1.45-1.16,5.51,5.51,0,0,0-2.25-.42,8.38,8.38,0,0,0-2,.24,8.55,8.55,0,0,0-1.71.58l-.88-2a8.57,8.57,0,0,1,2.23-1,8.92,8.92,0,0,1,2.41-.33,7.51,7.51,0,0,1,2.56.42,6,6,0,0,1,2,1.19,5.48,5.48,0,0,1,1.31,1.84,5.73,5.73,0,0,1,.46,2.33V91.9Zm1.7,0V89.43h3V91.9Zm3,0V89.43c.15,0,.27.11.33.33a3.47,3.47,0,0,1,.1.89,3.64,3.64,0,0,1-.1.91C395.72,91.78,395.6,91.9,395.45,91.9Z"/><path class="cls-3" d="M395.45,91.9c-.16,0-.27-.12-.34-.34a3.83,3.83,0,0,1-.09-.93,3.39,3.39,0,0,1,.09-.88c.07-.22.18-.32.34-.32Zm0,0V89.43a3.37,3.37,0,0,0,1.72-.41,4.26,4.26,0,0,0,1.21-1.12,14.57,14.57,0,0,0,1-1.59c.33-.57.68-1.14,1.05-1.7a11.5,11.5,0,0,1,1.23-1.52A5.63,5.63,0,0,1,403.16,82a4,4,0,0,1,1.85-.42,3.61,3.61,0,0,1,1.94.49,3.73,3.73,0,0,1,1.3,1.29,5.8,5.8,0,0,1,.72,1.79,9,9,0,0,1,.23,2,11.82,11.82,0,0,1-.3,2.48,9,9,0,0,1-1,2.59L406,91a7.48,7.48,0,0,0,.75-1.85,8,8,0,0,0,.26-2,4.14,4.14,0,0,0-.52-2.34A1.68,1.68,0,0,0,405,84a2.29,2.29,0,0,0-1.17.32,4,4,0,0,0-1.15,1.07,19.7,19.7,0,0,0-1.42,2.14A17.51,17.51,0,0,1,399.58,90a5.72,5.72,0,0,1-1.8,1.44A5.38,5.38,0,0,1,395.45,91.9Zm12.35-2.17.11,2.47a22.83,22.83,0,0,1-3.35,0,10.82,10.82,0,0,1-2.48-.51,7.57,7.57,0,0,1-1.89-.93,10.09,10.09,0,0,1-1.54-1.3l1.57-1.72A6.46,6.46,0,0,0,402,89a7.63,7.63,0,0,0,2.41.65A19.16,19.16,0,0,0,407.8,89.73Zm3.53,2.17a5.14,5.14,0,0,1-2.3-.46A3,3,0,0,1,407.68,90a5.73,5.73,0,0,1-.44-2.39v-.51h2v.51a3.24,3.24,0,0,0,.15,1.12.89.89,0,0,0,.61.53,5.21,5.21,0,0,0,1.37.14h.88V91.9Zm.88,0V89.43c.15,0,.27.11.33.33a3.07,3.07,0,0,1,.1.89,3.22,3.22,0,0,1-.1.91C412.48,91.78,412.36,91.9,412.21,91.9Z"/><path class="cls-3" d="M412.21,91.9c-.16,0-.27-.12-.34-.34a3.83,3.83,0,0,1-.09-.93,3.39,3.39,0,0,1,.09-.88c.07-.22.18-.32.34-.32Zm0,0V89.43H415V74.28h2.17V91.9Z"/><path class="cls-3" d="M420.18,91.9V74.28h2.17V91.9Z"/><path class="cls-3" d="M136.87,52.25h2.6l6.57,15h-2.71l-5.24-12.49L132.87,67.3h-2.64Zm-3.34,9.42h9v2.15h-9Z"/><path class="cls-3" d="M147.89,55.89h2.45V67.3h-2.45Zm8.32,5a3,3,0,0,0-.71-2.12,2.58,2.58,0,0,0-2-.76,2.92,2.92,0,0,0-2.33,1.1,4,4,0,0,0-.85,2.6h-.69a8.3,8.3,0,0,1,.59-3.4,3.89,3.89,0,0,1,1.68-1.88,5.33,5.33,0,0,1,2.57-.59,4.4,4.4,0,0,1,2.24.54,3.62,3.62,0,0,1,1.44,1.51,5,5,0,0,1,.51,2.35v7.1h-2.47Zm8.31,0a3,3,0,0,0-.72-2.12,2.59,2.59,0,0,0-2-.76,2.89,2.89,0,0,0-2.3,1.1,4.07,4.07,0,0,0-.83,2.6H158a8.14,8.14,0,0,1,.59-3.4,3.87,3.87,0,0,1,1.67-1.88,5.36,5.36,0,0,1,2.57-.59,4.44,4.44,0,0,1,2.25.54,3.62,3.62,0,0,1,1.44,1.51,5.16,5.16,0,0,1,.5,2.35v7.1h-2.47Z"/><path class="cls-3" d="M178.21,60.76a3.58,3.58,0,0,0-.44-1.64,2.81,2.81,0,0,0-1.11-1,3.44,3.44,0,0,0-1.63-.38,3.17,3.17,0,0,0-3,1.79,4.32,4.32,0,0,0-.43,2,4.71,4.71,0,0,0,.46,2.13,3.43,3.43,0,0,0,1.29,1.4,3.63,3.63,0,0,0,1.9.49,4.33,4.33,0,0,0,3.23-1.35l1.31,1.31a5.83,5.83,0,0,1-2,1.43,7,7,0,0,1-2.69.5,6.17,6.17,0,0,1-3.07-.73,5.17,5.17,0,0,1-2-2,6.61,6.61,0,0,1,0-6,5.24,5.24,0,0,1,2-2,6.27,6.27,0,0,1,3-.75,5.7,5.7,0,0,1,3.24.83A4.43,4.43,0,0,1,180,59a8.87,8.87,0,0,1,.37,3.57h-9.13V60.76Z"/><path class="cls-3" d="M182.94,55.89h2.47V67.3h-2.47ZM189.36,58a4,4,0,0,0-2.12.42,3.42,3.42,0,0,0-1.37,1.35,4,4,0,0,0-.48,2l-.69-.08a8.13,8.13,0,0,1,.56-3.23,4.26,4.26,0,0,1,1.61-2,4.51,4.51,0,0,1,2.49-.68Z"/><path class="cls-3" d="M192.63,51.18a1.41,1.41,0,0,1,1,.41,1.39,1.39,0,0,1,.41,1,1.42,1.42,0,0,1-.41,1,1.45,1.45,0,0,1-2.47-1,1.36,1.36,0,0,1,.42-1A1.42,1.42,0,0,1,192.63,51.18Zm-1.23,4.71h2.45V67.3H191.4Z"/><path class="cls-3" d="M205.56,59.15a4.16,4.16,0,0,0-1.41-1,4.77,4.77,0,0,0-1.85-.35,3.33,3.33,0,0,0-1.76.47,3.25,3.25,0,0,0-1.21,1.33,4.7,4.7,0,0,0,0,3.93,3.31,3.31,0,0,0,1.21,1.33,3.25,3.25,0,0,0,1.76.48,5,5,0,0,0,1.93-.35,3.87,3.87,0,0,0,1.44-1l1.38,1.35a5.17,5.17,0,0,1-2,1.5,7.1,7.1,0,0,1-2.85.54,6,6,0,0,1-3-.73,5.28,5.28,0,0,1-2-2,6.61,6.61,0,0,1,0-6,5.37,5.37,0,0,1,2-2,6,6,0,0,1,3-.74,7.53,7.53,0,0,1,2.74.46,5.42,5.42,0,0,1,2,1.3Z"/><path class="cls-3" d="M212.89,62.2a3.33,3.33,0,0,0-1.78.37,1.29,1.29,0,0,0-.58,1.2,1.53,1.53,0,0,0,.59,1.27,2.48,2.48,0,0,0,1.62.47,4.08,4.08,0,0,0,1.65-.32,2.9,2.9,0,0,0,1.17-.87,2.16,2.16,0,0,0,.45-1.24l.47,2.09a3.57,3.57,0,0,1-1.63,1.67,5.67,5.67,0,0,1-2.63.56,4.45,4.45,0,0,1-2.12-.47,3.47,3.47,0,0,1-1.4-1.28,3.35,3.35,0,0,1-.49-1.79,3,3,0,0,1,1.12-2.47,5,5,0,0,1,3.2-1h3.78V62.2ZM216,60.05a2.23,2.23,0,0,0-.68-1.74,3,3,0,0,0-2-.62,5,5,0,0,0-1.67.3,8,8,0,0,0-1.71.88l-1-1.59a11.91,11.91,0,0,1,1.51-.81,7.23,7.23,0,0,1,1.51-.5,9.57,9.57,0,0,1,1.9-.17,5,5,0,0,1,3.41,1.06,3.8,3.8,0,0,1,1.21,2.94l0,7.5H216Z"/><path class="cls-3" d="M221.74,55.89h2.48V67.3h-2.48Zm8.47,5a2.9,2.9,0,0,0-.73-2.1,2.7,2.7,0,0,0-2-.76,3,3,0,0,0-2.4,1.08,4,4,0,0,0-.87,2.62h-.68a8.19,8.19,0,0,1,.6-3.42,3.89,3.89,0,0,1,1.71-1.88,5.47,5.47,0,0,1,2.61-.59,4.59,4.59,0,0,1,2.29.54,3.6,3.6,0,0,1,1.46,1.51,5.16,5.16,0,0,1,.5,2.35v7.1h-2.47Z"/><path class="cls-3" d="M241.94,52.25h2.54V65.13H251V67.3h-9.05Z"/><path class="cls-3" d="M257,62.2a3.37,3.37,0,0,0-1.79.37,1.32,1.32,0,0,0-.58,1.2,1.56,1.56,0,0,0,.59,1.27,2.53,2.53,0,0,0,1.63.47,4.15,4.15,0,0,0,1.65-.32,2.87,2.87,0,0,0,1.16-.87,2,2,0,0,0,.45-1.24l.47,2.09A3.52,3.52,0,0,1,259,66.84a5.6,5.6,0,0,1-2.62.56,4.46,4.46,0,0,1-2.13-.47,3.45,3.45,0,0,1-1.39-1.28,3.35,3.35,0,0,1-.5-1.79,3,3,0,0,1,1.13-2.47,5,5,0,0,1,3.19-1h3.78V62.2Zm3.09-2.15a2.24,2.24,0,0,0-.69-1.74,3,3,0,0,0-2-.62,4.94,4.94,0,0,0-1.66.3,7.72,7.72,0,0,0-1.71.88l-1-1.59a12.55,12.55,0,0,1,1.5-.81A7.32,7.32,0,0,1,256,56a9.49,9.49,0,0,1,1.9-.17,4.93,4.93,0,0,1,3.4,1.06,3.81,3.81,0,0,1,1.22,2.94l0,7.5h-2.43Z"/><path class="cls-3" d="M265.86,55.89h2.47V67.3h-2.47Zm8.46,5a2.9,2.9,0,0,0-.73-2.1,2.68,2.68,0,0,0-2-.76,3,3,0,0,0-2.39,1.08,4,4,0,0,0-.87,2.62h-.69a8.19,8.19,0,0,1,.6-3.42,3.89,3.89,0,0,1,1.71-1.88,5.52,5.52,0,0,1,2.61-.59,4.59,4.59,0,0,1,2.29.54,3.55,3.55,0,0,1,1.46,1.51,5,5,0,0,1,.51,2.35v7.1h-2.48Z"/><path class="cls-3" d="M284.1,55.8a4.76,4.76,0,0,1,2.57.63,4.21,4.21,0,0,1,1.62,1.88,8.4,8.4,0,0,1,0,5.9,4,4,0,0,1-1.59,1.89,4.59,4.59,0,0,1-2.52.66,5.11,5.11,0,0,1-2.71-.7,4.82,4.82,0,0,1-1.8-1.94,6.23,6.23,0,0,1-.65-2.88,6.06,6.06,0,0,1,.63-2.83,4.78,4.78,0,0,1,1.79-1.91A5,5,0,0,1,284.1,55.8Zm6.32,10.36a5.41,5.41,0,0,1-.73,2.86,4.87,4.87,0,0,1-2.06,1.85,7,7,0,0,1-3.14.66,7.63,7.63,0,0,1-2.51-.4,9.14,9.14,0,0,1-2.24-1.1l1.05-1.7a7.38,7.38,0,0,0,1.68.93,5.28,5.28,0,0,0,1.91.34,4,4,0,0,0,1.9-.42A3,3,0,0,0,287.53,68a3.48,3.48,0,0,0,.44-1.78V55.89h2.45Zm-5.74-8.47a3.13,3.13,0,0,0-2.89,1.74,4.19,4.19,0,0,0,0,3.74A3.27,3.27,0,0,0,283,64.45a3.2,3.2,0,0,0,1.73.46,3.13,3.13,0,0,0,1.71-.46,3.19,3.19,0,0,0,1.16-1.28,4.4,4.4,0,0,0,0-3.75,3.16,3.16,0,0,0-1.16-1.27A3.13,3.13,0,0,0,284.68,57.69Z"/><path class="cls-3" d="M296,62.33a3,3,0,0,0,.71,2.1,2.55,2.55,0,0,0,2,.76,2.87,2.87,0,0,0,2.31-1.1,4.07,4.07,0,0,0,.83-2.6h.66a8.32,8.32,0,0,1-.58,3.4,3.87,3.87,0,0,1-1.64,1.88,5.29,5.29,0,0,1-2.53.61,4.4,4.4,0,0,1-2.24-.54A3.47,3.47,0,0,1,294,65.32a5,5,0,0,1-.51-2.34V55.89H296Zm5.81-6.44h2.47V67.3h-2.47Z"/><path class="cls-3" d="M311.63,62.2a3.33,3.33,0,0,0-1.78.37,1.29,1.29,0,0,0-.58,1.2,1.53,1.53,0,0,0,.59,1.27,2.48,2.48,0,0,0,1.62.47,4.12,4.12,0,0,0,1.65-.32,2.8,2.8,0,0,0,1.16-.87,2,2,0,0,0,.45-1.24l.48,2.09a3.54,3.54,0,0,1-1.64,1.67,5.6,5.6,0,0,1-2.62.56,4.45,4.45,0,0,1-2.12-.47,3.41,3.41,0,0,1-1.4-1.28,3.35,3.35,0,0,1-.5-1.79,3,3,0,0,1,1.13-2.47,5,5,0,0,1,3.19-1h3.79V62.2Zm3.09-2.15a2.24,2.24,0,0,0-.69-1.74,3,3,0,0,0-2-.62,4.94,4.94,0,0,0-1.66.3,7.72,7.72,0,0,0-1.71.88l-1-1.59a12.55,12.55,0,0,1,1.5-.81,7.52,7.52,0,0,1,1.52-.5,9.57,9.57,0,0,1,1.9-.17,5,5,0,0,1,3.41,1.06,3.8,3.8,0,0,1,1.21,2.94l0,7.5h-2.43Z"/><path class="cls-3" d="M324.48,55.8a4.78,4.78,0,0,1,2.57.63,4.21,4.21,0,0,1,1.62,1.88,7,7,0,0,1,.54,2.95,7.17,7.17,0,0,1-.53,2.95,4.14,4.14,0,0,1-1.59,1.89,4.65,4.65,0,0,1-2.53.66,5.08,5.08,0,0,1-2.7-.7,4.77,4.77,0,0,1-1.81-1.94,6.23,6.23,0,0,1-.64-2.88,6.06,6.06,0,0,1,.63-2.83,4.75,4.75,0,0,1,1.78-1.91A5,5,0,0,1,324.48,55.8Zm6.32,10.36a5.5,5.5,0,0,1-.73,2.86A4.84,4.84,0,0,1,328,70.87a7,7,0,0,1-3.14.66,7.72,7.72,0,0,1-2.51-.4,9.08,9.08,0,0,1-2.23-1.1l1.05-1.7a7,7,0,0,0,1.68.93,5.28,5.28,0,0,0,1.91.34,4.06,4.06,0,0,0,1.9-.42A3,3,0,0,0,327.91,68a3.48,3.48,0,0,0,.44-1.78V55.89h2.45Zm-5.74-8.47a3.13,3.13,0,0,0-2.89,1.74,4.19,4.19,0,0,0,0,3.74,3.31,3.31,0,0,0,4.6,1.28,3.27,3.27,0,0,0,1.16-1.28,4.4,4.4,0,0,0,0-3.75,3.24,3.24,0,0,0-1.16-1.27A3.17,3.17,0,0,0,325.06,57.69Z"/><path class="cls-3" d="M342.14,60.76a3.46,3.46,0,0,0-.44-1.64,2.72,2.72,0,0,0-1.1-1,3.48,3.48,0,0,0-1.64-.38,3.36,3.36,0,0,0-1.79.47A3.24,3.24,0,0,0,336,59.48a4.32,4.32,0,0,0-.43,2A4.58,4.58,0,0,0,336,63.6,3.36,3.36,0,0,0,337.3,65a3.61,3.61,0,0,0,1.9.49,4.31,4.31,0,0,0,3.22-1.35l1.31,1.31a5.83,5.83,0,0,1-2,1.43,7,7,0,0,1-2.69.5,6.2,6.2,0,0,1-3.07-.73,5.24,5.24,0,0,1-2-2,6.61,6.61,0,0,1,0-6,5.31,5.31,0,0,1,2-2,6.3,6.3,0,0,1,3-.75,5.73,5.73,0,0,1,3.25.83A4.54,4.54,0,0,1,343.93,59a9.06,9.06,0,0,1,.36,3.57h-9.13V60.76Z"/><path class="cls-3" d="M363.72,56.16a5.91,5.91,0,0,0-1.94-1.41,5.28,5.28,0,0,0-4.35-.1,5.36,5.36,0,0,0-2.87,2.92,5.73,5.73,0,0,0-.41,2.16,5.66,5.66,0,0,0,.41,2.14,5.32,5.32,0,0,0,1.15,1.75,5.5,5.5,0,0,0,1.72,1.18,5.09,5.09,0,0,0,2.1.43,5.53,5.53,0,0,0,2.23-.48,6.63,6.63,0,0,0,2-1.32l1.5,1.57a8.25,8.25,0,0,1-1.71,1.31,8.82,8.82,0,0,1-2,.86,7.58,7.58,0,0,1-2.11.3,8,8,0,0,1-3.08-.59,7.74,7.74,0,0,1-2.48-1.65,7.58,7.58,0,0,1-1.66-2.46,7.44,7.44,0,0,1-.61-3,7.27,7.27,0,0,1,.61-3,7.5,7.5,0,0,1,1.68-2.44,7.89,7.89,0,0,1,2.52-1.64,8.31,8.31,0,0,1,7.16.5,7.57,7.57,0,0,1,1.66,1.24Z"/><path class="cls-3" d="M375.23,60.76a3.46,3.46,0,0,0-.44-1.64,2.72,2.72,0,0,0-1.1-1,3.48,3.48,0,0,0-1.64-.38,3.39,3.39,0,0,0-1.79.47,3.24,3.24,0,0,0-1.19,1.32,4.32,4.32,0,0,0-.43,2,4.58,4.58,0,0,0,.46,2.13,3.43,3.43,0,0,0,1.29,1.4,3.61,3.61,0,0,0,1.9.49,4.3,4.3,0,0,0,3.22-1.35l1.31,1.31a5.74,5.74,0,0,1-2,1.43,7,7,0,0,1-2.68.5,6.21,6.21,0,0,1-3.08-.73,5.24,5.24,0,0,1-2-2,6.61,6.61,0,0,1,0-6,5.31,5.31,0,0,1,2-2,6.3,6.3,0,0,1,3-.75,5.73,5.73,0,0,1,3.25.83A4.54,4.54,0,0,1,377,59a9.06,9.06,0,0,1,.36,3.57h-9.13V60.76Z"/><path class="cls-3" d="M380,55.89h2.47V67.3H380Zm8.47,5a3,3,0,0,0-.73-2.1,2.7,2.7,0,0,0-2-.76,3,3,0,0,0-2.4,1.08,4,4,0,0,0-.87,2.62h-.69a8.19,8.19,0,0,1,.6-3.42A3.94,3.94,0,0,1,384,56.39a5.52,5.52,0,0,1,2.61-.59,4.59,4.59,0,0,1,2.29.54,3.49,3.49,0,0,1,1.46,1.51,5,5,0,0,1,.51,2.35v7.1h-2.47Z"/><path class="cls-3" d="M393.05,56.29h7.43v1.77h-7.43Zm4.06,7.4a1.84,1.84,0,0,0,.32,1.25,1.22,1.22,0,0,0,.9.34,3,3,0,0,0,.81-.13,6.06,6.06,0,0,0,.91-.39l.63,1.78a6.13,6.13,0,0,1-1.38.64,4.7,4.7,0,0,1-1.44.22,3.84,3.84,0,0,1-1.59-.33A2.6,2.6,0,0,1,395.1,66a3.67,3.67,0,0,1-.44-1.89V53.18h2.45Z"/><path class="cls-3" d="M410.73,60.76a3.46,3.46,0,0,0-.44-1.64,2.72,2.72,0,0,0-1.1-1,3.48,3.48,0,0,0-1.64-.38,3.36,3.36,0,0,0-1.79.47,3.24,3.24,0,0,0-1.19,1.32,4.32,4.32,0,0,0-.43,2,4.58,4.58,0,0,0,.46,2.13,3.3,3.3,0,0,0,1.29,1.4,3.61,3.61,0,0,0,1.9.49A4.31,4.31,0,0,0,411,64.14l1.31,1.31a5.83,5.83,0,0,1-2,1.43,7,7,0,0,1-2.69.5,6.2,6.2,0,0,1-3.07-.73,5.24,5.24,0,0,1-2-2,6.61,6.61,0,0,1,0-6,5.31,5.31,0,0,1,2-2,6.3,6.3,0,0,1,3-.75,5.68,5.68,0,0,1,3.24.83A4.5,4.5,0,0,1,412.52,59a9.06,9.06,0,0,1,.36,3.57h-9.13V60.76Z"/><path class="cls-3" d="M415.46,55.89h2.47V67.3h-2.47ZM421.88,58a4,4,0,0,0-2.11.42,3.39,3.39,0,0,0-1.38,1.35,4,4,0,0,0-.48,2l-.69-.08a8.31,8.31,0,0,1,.56-3.23,4.26,4.26,0,0,1,1.61-2,4.51,4.51,0,0,1,2.49-.68Z"/></g></g></svg>