<svg xmlns="http://www.w3.org/2000/svg" viewBox="0 0 916.2 824.89"><defs><style>.cls-1{fill:#fefefe;}.cls-2{fill:#00bad6;}</style></defs><g id="Layer_2" data-name="Layer 2"><g id="Layer_1-2" data-name="Layer 1"><path class="cls-1" d="M0,824.89V0H916.2V824.89ZM458.79,662.5v0c20.09,0,40.21.62,60.26-.2,14.77-.61,34.41,14.7,34.13,33.67-.28,18.28-17.2,32.62-32.62,32.54-60.45-.3-120.9-.11-181.35-.14-19.71,0-37.31-6.71-54.18-16.48-10.42-6-18.5-14.61-27.1-22.55-13.24-12.22-26.51-24.45-39.29-37.13-16.95-16.82-35.74-31.74-51.27-50a12,12,0,0,0-4.36-2.77c-4.38-1.9-7.57-.39-7.74,4.34-.39,11.17-3.11,22.15-3.16,33.27-.07,20.52.88,40.76,8.63,60.5,5,12.79,9.88,25.56,17.38,37,17.67,26.85,40.14,48.61,69.1,63.41,8.07,4.13,16.56,7.1,24.7,11,6.73,3.22,14.6,2.67,21.83,4.38a125.13,125.13,0,0,0,55.36,1c10.68-2.27,22-1.63,32.08-6.7,8.05-4,16.55-7,24.49-11.4,16.58-9.15,31.73-20,44.08-34.43,4.12-4.84,8.05-5.24,12.25-.84,14.78,15.48,31.09,28.85,50.73,37.93,12.28,5.68,24.38,11.08,38,13.41,22.49,3.85,44.59,6,67.38,1.5,15.13-3,29.51-6.95,43.45-13.54,16.42-7.77,30.93-18.33,44.08-30.37,14.49-13.27,26.85-28.66,35.67-46.51,5.57-11.28,11.71-22.27,13.83-35,.9-5.45,4-10.59,4.61-16,2.72-25.78,3.3-51.47-6-76.39-2.43-6.52-.85-9.67,5.53-12.4,3-1.3,6.23-2.8,9.43-3,10.12-.66,18.14-6.64,27.09-10.17,5.16-2,10.5-4.44,14.68-8,10.62-8.94,22.82-15.65,32.5-26.07a242,242,0,0,0,24.12-31.27c6.75-10.17,11.41-21.63,16-33.1,7-17.62,9.24-36.06,10.69-54.56,1.11-14.28-3.57-28.25-5.21-42.41-.36-3.15-2.45-4.54-5.6-5.26-4.39-1-8.65-.07-13-.08-32.65-.1-65.32,1.46-97.94-.89a77.47,77.47,0,0,1-30.92-8.82c-9.51-5.11-17.9-12.38-25.51-20.49-12.15-13-25.45-24.8-37.64-37.76-7.39-7.87-15.29-15.28-23-22.88-9.16-9.06-18.69-17.78-27.39-27.26-7.8-8.49-16.47-16-24.44-24.36-7.33-7.65-15.52-14.49-22.26-22.77-12-14.78-10.73-27.5,4-39,8.51-6.65,18.63-7.14,27.54-1.16,9.32,6.26,16.77,14.62,24.85,22.29,12.15,11.52,24.93,22.38,36.87,34.1,14.82,14.57,30.67,27.17,51,33.38,7.7,2.36,13-.23,13.74-8.2a36.74,36.74,0,0,0-.33-9.37c-1.15-6.51-3.17-8.85-9.65-8.72-9.27.2-16.24-4.44-22.41-9.95-24.18-21.59-48-43.61-71.89-65.5-5.81-5.33-12-10.34-19-13.71-17.25-8.34-45.39.43-55.42,17-3.41,5.63-7.9,8.09-14.16,7.87-3.64-.12-7.28-.75-10.92-.76q-50.58-.09-101.15,0a63.93,63.93,0,0,0-6.76.55c-19.26,2.06-36.67-13.39-35.16-33.42.19-2.59.65-5.17.95-7.76,1.24-10.68,13.58-21.71,24.34-22.53,8.21-.62,16.35-.07,24.52-.06,48.74,0,97.49.28,146.23-.18,10.81-.1,21.61-.14,32.37.59,11.65.78,22.39,5.4,32.46,10.85s18.63,12.67,26.8,20.68c22,21.64,45.54,41.73,67.34,63.63a59.34,59.34,0,0,0,8.19,7.28c2.42,1.67,5.85,2.53,5.86-2.2,0-12.55,1.46-25.28-.88-37.63-2.66-14.08-6.2-28-12.25-41.26s-12.85-26-21.73-37.86a177.25,177.25,0,0,0-43.37-41.17C664,29.52,643.46,20,620.23,16.58c-20.22-2.93-40.12-4.65-60.17.12-7.28,1.73-15.09.7-22,3.86-8.08,3.67-16.38,6.8-24.39,10.68-19.36,9.39-36.48,21.54-51.05,37.32-4.35,4.7-8.86,4.88-12.95-.06-10.93-13.23-24.54-23.24-39.14-31.77-13.78-8-28.25-15-44-18.4-3.55-.78-7.32-.6-10.85-1.43a139.7,139.7,0,0,0-43.67-3.07c-12.26,1-24.9,2.4-36.41,6.4-18.33,6.37-36.35,14-51.73,26.59-12.16,10-24,20.14-33.55,32.75-8.41,11.06-16.5,22.1-22.11,35.09-4.36,10.08-9.21,20.14-11.6,30.64-3.47,15.2-5.82,30.9-4.39,46.66.71,7.79,1.81,15.54,2.25,23.38.32,5.48.84,11.1,3.9,16.11,5.73,9.37,4,14-6.65,16.49a194.24,194.24,0,0,0-24.71,7.76c-16.62,6.35-31,16.1-44.37,27.09C70,293.12,58.51,305,50,319.22c-2.06,3.42-5.24,6.29-6.7,9.91-3.12,7.75-6.9,15.28-10.62,22.62-5.22,10.32-7.75,21.53-10,32.16-4.27,20.45-2.85,41.68-.65,62.54.85,8,5.94,11.64,13.93,11.65,45.92,0,91.84-.34,137.77.76,19,.45,34.05,8.33,47.21,20.39,18.75,17.18,35.95,36,54.33,53.6,17.07,16.36,33.35,33.53,50,50.31,11.88,12,23.9,23.77,35.7,35.8a40.29,40.29,0,0,1,9.68,14.73c3.6,10.32-.78,18.67-8,25.34-6.55,6-14.75,8.11-23.76,5.91-7.11-1.74-12.2-6.29-17.34-11.15q-26.79-25.34-54-50.23c-7.18-6.58-14.42-13.08-22.18-19-5.48-4.2-12.24-4.71-17.71-8.36-4.36-2.91-9.3-3.66-14.41-3.95-3.77-.22-6.07.93-6.18,5.11-.1,3.48-.62,7-.61,10.43,0,7.75,1,9.12,8.53,10.62,9.6,1.9,18.15,5.38,25.51,12.19q36.81,34.14,74.08,67.78c12,10.83,25.76,17.07,42.1,12.26,12.66-3.72,23.23-11,29.9-22.84,2.25-4,5.27-5.37,9.82-5.33C417.21,662.61,438,662.5,458.79,662.5Z"/><path class="cls-2" d="M458.79,662.5c-20.79,0-41.58.11-62.37-.08-4.55,0-7.57,1.33-9.82,5.33-6.67,11.85-17.24,19.12-29.9,22.84-16.34,4.81-30.14-1.43-42.1-12.26q-37.22-33.69-74.08-67.78c-7.36-6.81-15.91-10.29-25.51-12.19-7.58-1.5-8.5-2.87-8.53-10.62,0-3.48.51-7,.61-10.43.11-4.18,2.41-5.33,6.18-5.11,5.11.29,10,1,14.41,3.95,5.47,3.65,12.23,4.16,17.71,8.36,7.76,6,15,12.47,22.18,19q27.18,24.9,54,50.23c5.14,4.86,10.23,9.41,17.34,11.15,9,2.2,17.21.13,23.76-5.91,7.23-6.67,11.61-15,8-25.34A40.29,40.29,0,0,0,361,619c-11.8-12-23.82-23.85-35.7-35.8-16.67-16.78-33-33.95-50-50.31-18.38-17.61-35.58-36.42-54.33-53.6-13.16-12.06-28.26-19.94-47.21-20.39-45.93-1.1-91.85-.72-137.77-.76-8,0-13.08-3.66-13.93-11.65-2.2-20.86-3.62-42.09.65-62.54,2.21-10.63,4.74-21.84,10-32.16,3.72-7.34,7.5-14.87,10.62-22.62,1.46-3.62,4.64-6.49,6.7-9.91C58.51,305,70,293.12,82.56,282.79c13.33-11,27.75-20.74,44.37-27.09a194.24,194.24,0,0,1,24.71-7.76c10.61-2.51,12.38-7.12,6.65-16.49-3.06-5-3.58-10.63-3.9-16.11-.44-7.84-1.54-15.59-2.25-23.38-1.43-15.76.92-31.46,4.39-46.66,2.39-10.5,7.24-20.56,11.6-30.64,5.61-13,13.7-24,22.11-35.09,9.59-12.61,21.39-22.8,33.55-32.75,15.38-12.59,33.4-20.22,51.73-26.59,11.51-4,24.15-5.37,36.41-6.4A139.7,139.7,0,0,1,355.6,16.9c3.53.83,7.3.65,10.85,1.43,15.79,3.44,30.26,10.35,44,18.4,14.6,8.53,28.21,18.54,39.14,31.77,4.09,4.94,8.6,4.76,12.95.06,14.57-15.78,31.69-27.93,51.05-37.32,8-3.88,16.31-7,24.39-10.68,7-3.16,14.76-2.13,22-3.86,20.05-4.77,40-3,60.17-.12C643.46,20,664,29.52,682.93,42.14A177.25,177.25,0,0,1,726.3,83.31c8.88,11.83,15.64,24.5,21.73,37.86s9.59,27.18,12.25,41.26c2.34,12.35.89,25.08.88,37.63,0,4.73-3.44,3.87-5.86,2.2a59.34,59.34,0,0,1-8.19-7.28c-21.8-21.9-45.31-42-67.34-63.63-8.17-8-16.85-15.29-26.8-20.68s-20.81-10.07-32.46-10.85c-10.76-.73-21.56-.69-32.37-.59-48.74.46-97.49.23-146.23.18-8.17,0-16.31-.56-24.52.06-10.76.82-23.1,11.85-24.34,22.53-.3,2.59-.76,5.17-.95,7.76-1.51,20,15.9,35.48,35.16,33.42a63.93,63.93,0,0,1,6.76-.55q50.57-.06,101.15,0c3.64,0,7.28.64,10.92.76,6.26.22,10.75-2.24,14.16-7.87,10-16.56,38.17-25.33,55.42-17,7,3.37,13.21,8.38,19,13.71,23.91,21.89,47.71,43.91,71.89,65.5,6.17,5.51,13.14,10.15,22.41,9.95,6.48-.13,8.5,2.21,9.65,8.72a36.74,36.74,0,0,1,.33,9.37c-.7,8-6,10.56-13.74,8.2-20.3-6.21-36.15-18.81-51-33.38-11.94-11.72-24.72-22.58-36.87-34.1-8.08-7.67-15.53-16-24.85-22.29-8.91-6-19-5.49-27.54,1.16-14.75,11.53-16,24.25-4,39,6.74,8.28,14.93,15.12,22.26,22.77,8,8.31,16.64,15.87,24.44,24.36,8.7,9.48,18.23,18.2,27.39,27.26,7.68,7.6,15.58,15,23,22.88,12.19,13,25.49,24.8,37.64,37.76,7.61,8.11,16,15.38,25.51,20.49a77.47,77.47,0,0,0,30.92,8.82c32.62,2.35,65.29.79,97.94.89,4.32,0,8.58-.91,13,.08,3.15.72,5.24,2.11,5.6,5.26,1.64,14.16,6.32,28.13,5.21,42.41-1.45,18.5-3.68,36.94-10.69,54.56-4.56,11.47-9.22,22.93-16,33.1a242,242,0,0,1-24.12,31.27c-9.68,10.42-21.88,17.13-32.5,26.07-4.18,3.52-9.52,5.93-14.68,8-9,3.53-17,9.51-27.09,10.17-3.2.22-6.4,1.72-9.43,3-6.38,2.73-8,5.88-5.53,12.4,9.27,24.92,8.69,50.61,6,76.39-.57,5.44-3.71,10.58-4.61,16-2.12,12.72-8.26,23.71-13.83,35-8.82,17.85-21.18,33.24-35.67,46.51-13.15,12-27.66,22.6-44.08,30.37-13.94,6.59-28.32,10.58-43.45,13.54-22.79,4.46-44.89,2.35-67.38-1.5-13.65-2.33-25.75-7.73-38-13.41-19.64-9.08-35.95-22.45-50.73-37.93-4.2-4.4-8.13-4-12.25.84-12.35,14.47-27.5,25.28-44.08,34.43-7.94,4.38-16.44,7.38-24.49,11.4-10.12,5.07-21.4,4.43-32.08,6.7a125.13,125.13,0,0,1-55.36-1c-7.23-1.71-15.1-1.16-21.83-4.38-8.14-3.89-16.63-6.86-24.7-11-29-14.8-51.43-36.56-69.1-63.41-7.5-11.4-12.36-24.17-17.38-37-7.75-19.74-8.7-40-8.63-60.5,0-11.12,2.77-22.1,3.16-33.27.17-4.73,3.36-6.24,7.74-4.34a12,12,0,0,1,4.36,2.77c15.53,18.26,34.32,33.18,51.27,50,12.78,12.68,26.05,24.91,39.29,37.13,8.6,7.94,16.68,16.52,27.1,22.55,16.87,9.77,34.47,16.46,54.18,16.48,60.45,0,120.9-.16,181.35.14,15.42.08,32.34-14.26,32.62-32.54.28-19-19.36-34.28-34.13-33.67-20,.82-40.17.2-60.26.2ZM455,525.72H455q0,40.6,0,81.22c0,8.11,6.68,16.68,13.64,17.67,10.92,1.57,19.69-3.85,22.66-13,2.29-7,.41-13.85.4-20.73-.16-89.23.75-178.48-.8-267.71,0-2.79-.1-6.19,3.26-7.69s6.07-.09,8.75,1.77,2.35,4.42,2.35,7.06q-.06,41.91-.11,83.84a80.86,80.86,0,0,1-.67,12.51,20,20,0,0,0,3.13,13.47c2.09,3.37,5.73,5.4,9.87,4.36a14.44,14.44,0,0,0,10.84-10.18c2-6.27.09-12.49.12-18.72.11-30.92,0-61.84.11-92.75,0-9.7-.79-19-5.55-27.82-5.72-10.65-13.32-18.09-25.76-19.74-13.56-1.79-27.1-1.38-40.68-.27a139.76,139.76,0,0,1-21.46,0c-12.68-.91-25.22-1.32-38,.9-14.67,2.56-20.75,13.29-25.54,24.75-3.44,8.24-3.61,17.62-3.58,26.76q.19,49.51-.07,99a22.14,22.14,0,0,0,2.84,11c2.39,4.45,6,6.85,11,6.39a12.79,12.79,0,0,0,11-9.17c.94-3.58.5-7.21.47-10.86-.21-32-.2-63.93-.3-95.9,0-3.76,1.08-6.85,5.21-7.07s6.83,1.59,7.77,6.06-.32,9-.32,13.48q.12,126.28-.05,252.57c0,6.94-.95,13.82-.08,20.83,1.24,9.86,7.93,16.67,18.25,17.47,8.34.66,15.54-5.3,18-14.32,1.12-4.11-.23-7.94-.24-11.9q-.11-77.55-.11-155.11c0-2.37.38-4.55,2.61-5.9,2.44-1.47,5-2.71,7.87-1.25S455,441.12,455,444Q455,484.85,455,525.72Zm175.1,93.73H630v46.12a34.4,34.4,0,0,0,.08,4.19c.84,6.75,9.59,13.75,14.28,11s8.13-6.86,8.69-12.43c1.61-16.13,2.91-32.28,3.4-48.51.37-12.5.84-25.05,2.83-37.47,1.6-10,3.68-20,3.89-30,.55-26.5,4.34-52.79,4.62-79.28,0-3.86,2-4.88,5.4-4.18,2.62.53,4,2,5.16,4.52,5.3,11.79,11.36,23.14,20,32.92,5,5.71,3.9,10.67-3.3,13.22a17.16,17.16,0,0,0-9.25,7.24c-1.63,2.6-3,5.31-.49,8.12s5.31,1.88,8.14.55a35,35,0,0,0,8.21-5.53c2.2-1.91,4.2-1.88,6.27.51a17.91,17.91,0,0,1,4.75,12.39c-.12,5.74-.69,11.48-.72,17.22-.15,33.5-.19,67-.3,100.49,0,5.57,2.23,8.07,7.22,7.88,4.36-.17,6.94-3.31,6.16-8.42s-.61-10.45-.61-15.67c0-34.76-.08-69.52.07-104.28,0-5.91-1.36-11-5.51-15.22-2-2.05-2.82-4.69-1.17-7.18,3.88-5.9,4.53-11.51-.35-17.2-.74-.87-.86-2.27-1.28-3.41a239.48,239.48,0,0,0-10-22.94c-6.63-13.6-12.13-27.67-18.42-41.4-3-6.46-7.23-12.4-9.06-19.27-2.39-9-8.62-13-17-13.77-10.76-1-21.55-2-32.41-1.33-2.94.18-5.78,1.14-8.83.67-10.09-1.53-20.39-1.86-30.16.82-11,3-21.56,7.88-24.58,20.82a67,67,0,0,0-1.87,13.39c-.29,10,1.16,19.78,1.91,29.67,1.63,21.2,2.41,42.46,3.56,63.69.35,6.53,2.59,12.15,9,14.7a11.28,11.28,0,0,1,7.55,9.78c1.28,10.87,3,21.8,3,32.7-.12,28.68,5.16,56.89,6.52,85.42.25,5.2,3.59,8.69,8.17,10.65,4.2,1.8,7.32-1,10.33-3.39,3.44-2.73,4.44-6.46,4.39-10.7-.12-9.58-.23-19.15-.23-28.73,0-32.12.88-64.25-.62-96.37-.29-6.1,1.64-8.31,6.16-8.14,5,.19,7.87,3.31,7.27,8.76-1.25,11.28.15,22.56-.53,33.87C629.46,590.42,630.12,605,630.12,619.45ZM248.26,333.06v-.15H265c4.2,0,8.41.33,12.57,0,5.45-.44,10.67-4.19,7.55-11.05a28.35,28.35,0,0,1-1.82-6.53c-.8-4.45,1.3-6.57,5.84-6,3.54.42,5.86,2.49,7.95,5.32,6.25,8.48,13.94,15.66,21.91,22.42,6.59,5.6,14.69,3,17-5,1.49-5.16-.46-9.68-4.07-13.34-14.74-14.92-29.47-29.83-44.39-44.54-5.22-5.14-11.46-8.24-19.21-8-11.35.29-22.73.48-34.06,0-10.08-.46-18.13,3.4-24.89,10.15C194.62,291,180.09,306,165.49,321c-3.86,4-4.13,11.63-.67,15.28,3.73,3.93,11,4.59,15.38.93,4.53-3.8,8.64-8.1,13-12.07,4.8-4.33,7.69-10.3,12.74-14.44a6.53,6.53,0,0,1,6.36-1.29c2.27.73,2.43,3.11,2.56,5.28a17.93,17.93,0,0,1-1.14,8.23c-2.58,5.93,2.23,10.57,8.31,10.29C230.78,332.75,239.53,333.06,248.26,333.06ZM446.53,189.67c-20.55-2.31-34.69,18.14-35.11,32.47-.5,16.67,14.12,35.78,34.79,35.67,20.23-.11,34.8-17,35.15-34.67C481.65,208.25,464.75,186.78,446.53,189.67Zm-163.4,34.55c.07-20-13.21-33.14-31.92-34.57-18.94-1.45-36.14,19.11-36.48,33.47C214.36,239,230.3,258.2,249.66,258,266.07,257.77,285.73,244.39,283.13,224.22Zm32.09,161.89c-.92-5.36-1.92-10.79-5.93-14.75-5.45-5.39-11.12-10.53-16.21-16.29-4.31-4.88-7.55-4.68-12.3,0-5.57,5.51-10.77,11.37-17,16.23-3.67,2.85-3.46,7.88,0,10.89,2.89,2.51,5.8,5,8.8,7.37,7.38,5.86,7.11,10.71-.37,16.78-5.79,4.71-11.43,9.73-15.49,16.14-3,4.73-2.37,9.34,1.53,13.26,5.67,5.7,11.34,5.61,17.68-.79,11.29-11.39,22.4-23,33.55-34.49C313.35,396.51,314.3,391.35,315.22,386.11Zm-78.31-9.48a5.15,5.15,0,0,0-1.81-5c-6.71-5.08-12.11-11.52-18.25-17.18-3-2.79-6.35-3.27-9.64.17-5.65,5.92-11.5,11.65-17.24,17.48-7.28,7.38-8.26,17.9-1.88,26,10.49,13.3,23.48,24.28,34.71,36.92a11.49,11.49,0,0,0,2.53,1.84c5.64,3.59,12.13,3,16.21-1.58,3.64-4,3.17-10.78-1.53-15.63-5.2-5.38-10.12-11-16.19-15.56-4.75-3.54-4.86-8.51-.45-12.42,3.38-3,6.9-5.84,10.48-8.6C236,381.42,237.17,379.52,236.91,376.63Zm387,8.89c14.65,1.53,26.39-12.58,26.25-24.38-.17-15-13.66-26.1-27-25.45-14.56.7-24.68,10.73-25.31,25.36C597.19,375,609,385.49,623.88,385.52Z"/><path class="cls-1" d="M455,525.72q0-40.87,0-81.75c0-2.85-.09-5.67-3.13-7.2s-5.43-.22-7.87,1.25c-2.23,1.35-2.61,3.53-2.61,5.9q0,77.57.11,155.11c0,4,1.36,7.79.24,11.9-2.48,9-9.68,15-18,14.32-10.32-.8-17-7.61-18.25-17.47-.87-7,.08-13.89.08-20.83q0-126.29.05-252.57c0-4.5,1.29-8.9.32-13.48s-3.78-6.27-7.77-6.06-5.23,3.31-5.21,7.07c.1,32,.09,63.93.3,95.9,0,3.65.47,7.28-.47,10.86a12.79,12.79,0,0,1-11,9.17c-5,.46-8.63-1.94-11-6.39a22.14,22.14,0,0,1-2.84-11q.21-49.51.07-99c0-9.14.14-18.52,3.58-26.76,4.79-11.46,10.87-22.19,25.54-24.75,12.75-2.22,25.29-1.81,38-.9a139.76,139.76,0,0,0,21.46,0c13.58-1.11,27.12-1.52,40.68.27,12.44,1.65,20,9.09,25.76,19.74,4.76,8.86,5.59,18.12,5.55,27.82-.13,30.91,0,61.83-.11,92.75,0,6.23,1.88,12.45-.12,18.72a14.44,14.44,0,0,1-10.84,10.18c-4.14,1-7.78-1-9.87-4.36a20,20,0,0,1-3.13-13.47,80.86,80.86,0,0,0,.67-12.51q.09-41.93.11-83.84c0-2.64.23-5.28-2.35-7.06s-5.49-3.22-8.75-1.77-3.3,4.9-3.26,7.69c1.55,89.23.64,178.48.8,267.71,0,6.88,1.89,13.71-.4,20.73-3,9.1-11.74,14.52-22.66,13-7-1-13.63-9.56-13.64-17.67q0-40.62,0-81.22Z"/><path class="cls-1" d="M630.12,619.45c0-14.49-.66-29,.21-43.48.68-11.31-.72-22.59.53-33.87.6-5.45-2.28-8.57-7.27-8.76-4.52-.17-6.45,2-6.16,8.14,1.5,32.12.63,64.25.62,96.37,0,9.58.11,19.15.23,28.73.05,4.24-.95,8-4.39,10.7-3,2.41-6.13,5.19-10.33,3.39-4.58-2-7.92-5.45-8.17-10.65-1.36-28.53-6.64-56.74-6.52-85.42,0-10.9-1.68-21.83-3-32.7a11.28,11.28,0,0,0-7.55-9.78c-6.45-2.55-8.69-8.17-9-14.7-1.15-21.23-1.93-42.49-3.56-63.69-.75-9.89-2.2-19.71-1.91-29.67a67,67,0,0,1,1.87-13.39c3-12.94,13.53-17.79,24.58-20.82,9.77-2.68,20.07-2.35,30.16-.82,3,.47,5.89-.49,8.83-.67,10.86-.68,21.65.33,32.41,1.33,8.38.78,14.61,4.77,17,13.77,1.83,6.87,6.11,12.81,9.06,19.27,6.29,13.73,11.79,27.8,18.42,41.4a239.48,239.48,0,0,1,10,22.94c.42,1.14.54,2.54,1.28,3.41,4.88,5.69,4.23,11.3.35,17.2-1.65,2.49-.82,5.13,1.17,7.18,4.15,4.27,5.54,9.31,5.51,15.22-.15,34.76-.1,69.52-.07,104.28,0,5.22-.2,10.44.61,15.67s-1.8,8.25-6.16,8.42c-5,.19-7.23-2.31-7.22-7.88.11-33.49.15-67,.3-100.49,0-5.74.6-11.48.72-17.22a17.91,17.91,0,0,0-4.75-12.39c-2.07-2.39-4.07-2.42-6.27-.51a35,35,0,0,1-8.21,5.53c-2.83,1.33-5.66,2.18-8.14-.55s-1.14-5.52.49-8.12a17.16,17.16,0,0,1,9.25-7.24c7.2-2.55,8.33-7.51,3.3-13.22-8.64-9.78-14.7-21.13-20-32.92-1.12-2.5-2.54-4-5.16-4.52-3.45-.7-5.36.32-5.4,4.18-.28,26.49-4.07,52.78-4.62,79.28-.21,10-2.29,20-3.89,30-2,12.42-2.46,25-2.83,37.47-.49,16.23-1.79,32.38-3.4,48.51-.56,5.57-4.11,9.75-8.69,12.43s-13.44-4.26-14.28-11a34.4,34.4,0,0,1-.08-4.19V619.45Z"/><path class="cls-1" d="M248.26,333.06c-8.73,0-17.48-.31-26.2.11-6.08.28-10.89-4.36-8.31-10.29a17.93,17.93,0,0,0,1.14-8.23c-.13-2.17-.29-4.55-2.56-5.28a6.53,6.53,0,0,0-6.36,1.29c-5.05,4.14-7.94,10.11-12.74,14.44-4.39,4-8.5,8.27-13,12.07-4.37,3.66-11.65,3-15.38-.93-3.46-3.65-3.19-11.33.67-15.28,14.6-15,29.13-30,43.92-44.74,6.76-6.75,14.81-10.61,24.89-10.15,11.33.51,22.71.32,34.06,0,7.75-.2,14,2.9,19.21,8,14.92,14.71,29.65,29.62,44.39,44.54,3.61,3.66,5.56,8.18,4.07,13.34-2.31,8-10.41,10.62-17,5-8-6.76-15.66-13.94-21.91-22.42-2.09-2.83-4.41-4.9-7.95-5.32-4.54-.54-6.64,1.58-5.84,6a28.35,28.35,0,0,0,1.82,6.53c3.12,6.86-2.1,10.61-7.55,11.05-4.16.34-8.37,0-12.57,0H248.26Z"/><path class="cls-1" d="M446.53,189.67c18.22-2.89,35.12,18.58,34.83,33.47-.35,17.7-14.92,34.56-35.15,34.67-20.67.11-35.29-19-34.79-35.67C411.84,207.81,426,187.36,446.53,189.67Z"/><path class="cls-1" d="M283.13,224.22c2.6,20.17-17.06,33.55-33.47,33.75-19.36.23-35.3-19-34.93-34.85.34-14.36,17.54-34.92,36.48-33.47C269.92,191.08,283.2,204.19,283.13,224.22Z"/><path class="cls-1" d="M315.22,386.11c-.92,5.24-1.87,10.4-5.72,14.38C298.35,412,287.24,423.59,276,435c-6.34,6.4-12,6.49-17.68.79-3.9-3.92-4.53-8.53-1.53-13.26,4.06-6.41,9.7-11.43,15.49-16.14,7.48-6.07,7.75-10.92.37-16.78-3-2.38-5.91-4.86-8.8-7.37-3.48-3-3.69-8,0-10.89,6.23-4.86,11.43-10.72,17-16.23,4.75-4.71,8-4.91,12.3,0,5.09,5.76,10.76,10.9,16.21,16.29C313.3,375.32,314.3,380.75,315.22,386.11Z"/><path class="cls-1" d="M236.91,376.63c.26,2.89-1,4.79-3.06,6.42-3.58,2.76-7.1,5.6-10.48,8.6-4.41,3.91-4.3,8.88.45,12.42,6.07,4.52,11,10.18,16.19,15.56,4.7,4.85,5.17,11.59,1.53,15.63-4.08,4.53-10.57,5.17-16.21,1.58A11.49,11.49,0,0,1,222.8,435c-11.23-12.64-24.22-23.62-34.71-36.92-6.38-8.09-5.4-18.61,1.88-26,5.74-5.83,11.59-11.56,17.24-17.48,3.29-3.44,6.62-3,9.64-.17,6.14,5.66,11.54,12.1,18.25,17.18A5.15,5.15,0,0,1,236.91,376.63Z"/><path class="cls-1" d="M623.88,385.52c-14.91,0-26.69-10.56-26.08-24.47.63-14.63,10.75-24.66,25.31-25.36,13.36-.65,26.85,10.49,27,25.45C650.27,372.94,638.53,387.05,623.88,385.52Z"/></g></g></svg>