<svg xmlns="http://www.w3.org/2000/svg" viewBox="0 0 364.57 333.47"><defs><style>.cls-1{fill:#143061;}.cls-2{fill:#3c61a5;}</style></defs><g id="Layer_2" data-name="Layer 2"><g id="Layer_1-2" data-name="Layer 1"><path class="cls-1" d="M194.29,333c-2.95,0-2.61-2-2.47-3.33,1.68.87,3.45,2.36,5.42,2.68,3.74.61,6.4-2.76,4.76-6.14-1.13-2.33-3.23-4.29-5.2-6.09-2.41-2.21-5-3.95-6.18-7.42a6.73,6.73,0,0,1,7.79-8.46c1.49.23,4.2-.36,3.24,2.86a11,11,0,0,0-2.94-1.55c-2.06-.36-4.3-.46-5.45,1.83a4.79,4.79,0,0,0,1,5.93c2.27,2.18,4.73,4.17,7,6.35a17.55,17.55,0,0,1,3.15,3.79c2.22,3.86.25,8.27-4.1,9.55l-1.52.45h-3Z"/><path class="cls-2" d="M194.29,333l1.51.45h-1.49A.59.59,0,0,0,194.29,333Z"/><path class="cls-2" d="M198.8,333.47l1.52-.45a.64.64,0,0,0,0,.45Z"/><path class="cls-2" d="M207.72,155.73c1.9-1.93,3.82-3.83,5.67-5.8a20,20,0,0,0,1.6-2.23l.67.54c-1.22,3.17-2.52,6.32-3.63,9.53-2.24,6.48-4.64,12.94-4.73,19.94,0,2.88.48,3.65,3.25,3.35,5.24-.56,10.42-1.56,15.65-2.19,5.7-.69,11.41-1.17,17.17-1.35-10.78,3.8-18.93,10.95-26.26,19.22-13.73,15.47-23.78,33.3-33.06,51.62a8.26,8.26,0,0,1-1.51,1.63,8,8,0,0,1-1.74-1.7c-7.36-14-14.87-28-24.39-40.75-7-9.42-14.55-18.39-24.63-24.73-3.23-2-6.84-3.49-10.37-5.55,4.65.36,9.32.57,13.94,1.12,6.3.76,12.56,1.81,18.84,2.68,2.35.33,3.24-.8,3.2-3.18a40.93,40.93,0,0,0-3.9-16.72c0-.06.12-.16.11-.17a3.47,3.47,0,0,0-.29-.25l0,0c-1.39-4.1-2.77-8.21-4.17-12.33.24,0,.44-.06.54,0,.4.3.77.64,1.14,1C158,156,163,164.13,167.23,172.72a118.61,118.61,0,0,1,10,30.9c1.7,9.16,2.79,18.43,4.06,27.66.5,3.59.75,7.21,1.11,10.82.62-4.74.84-9.45,1.54-14.09,1.53-10.11,2.91-20.26,5.07-30.24,2.4-11,6-21.74,12-31.44l6.29-10.13.49-.51Z"/><path class="cls-1" d="M207.29,156.2,201,166.33c-6.05,9.7-9.63,20.41-12,31.44-2.16,10-3.54,20.13-5.07,30.24-.7,4.64-.92,9.35-1.54,14.09-.36-3.61-.61-7.23-1.11-10.82-1.27-9.23-2.36-18.5-4.06-27.66a118.61,118.61,0,0,0-10-30.9C163,164.13,158,156,150.85,149.44c-.37-.33-.74-.67-1.14-1-.1-.07-.3,0-.54,0,1.4,4.12,2.78,8.23,4.17,12.33C148,153.1,141.52,146.61,132.79,142a23.29,23.29,0,0,1,13.12,2.08,63,63,0,0,1,18.28,12.86c4.76,4.62,9.24,9.54,13.77,14.4,3.77,4.06,7.17,4,9.8-.93,2.21-4.2,3.55-8.89,5-13.44,3.17-9.77,6.58-19.45,13.39-27.35,3.21-3.72,7.21-6.77,10.86-10.13l.36.44c-5.45,11.12-7.77,23.11-9.81,35.18a2,2,0,0,0,.14.65l.06,0Z"/><path class="cls-2" d="M180.46,66.06c-.46,5.13-1.1,10.25-1.33,15.4s0,10.24,0,15.45A20,20,0,0,1,167.39,83.5c-2.66-9.27.33-17.54,5-25.27,3.33-5.53,7.34-10.64,11.07-15.92a8.94,8.94,0,0,1,1.26-1.12c.22.61.41,1,.53,1.46,2,7.21,5.72,13.57,9.33,20,5.09,9.13,5.57,18.38-.77,27.13-1.89,2.62-4.81,4.49-7.32,6.64-1.14,1-1.65.81-2-.89a124.57,124.57,0,0,1-3-27.48c0-.65-.06-1.3-.09-2Z"/><path class="cls-1" d="M101.49,96.84c10.5,2,20.19,4.23,28.67,9.72,6.67,4.32,11,10.47,11.12,18.69,0,2.82-1.12,5.67-2.05,8.57-5.91-8.37-12.29-16.09-20.52-22l-.55.43c1.26,1.62,2.62,3.18,3.77,4.88,4.13,6.13,8.18,12.32,12.28,18.47,1.11,1.67.28,2.07-1.29,2.23-15,1.56-23.61-9.1-25.5-19.91C106.19,110.84,105,103.8,101.49,96.84Z"/><path class="cls-1" d="M246.38,111.76c-8.36,5.81-14.57,13.64-20.3,22.19-4-7.89-2.57-14.9,2.35-21.49,4.09-5.47,9.88-8.5,16.12-10.6,6-2,12.17-3.54,18.89-5.46a89.75,89.75,0,0,0-3.13,8.68c-1.36,5.49-1.95,11.21-3.7,16.55-3.78,11.48-12.77,17.35-24.86,16.14-1.63-.17-1.7-1-.95-2.14q6.8-10.15,13.65-20.26c.76-1.1,1.66-2.1,2.49-3.15Z"/><path class="cls-2" d="M72.83,141.64c2.8-1.46,5.63-3,8.49-4.42,6.56-3.29,13.41-5.93,20.77-6.21a21.8,21.8,0,0,1,14.07,4.65c3.49,2.63,5.45,6.17,6.76,10.57-9-2.3-17.64-4.59-27.22-3.49l26.43,7.72c-7.38,10.08-19.82,11.35-29.47,5.3-2.86-1.79-5.25-4.32-8-6.28C80.87,146.81,77,144.35,72.83,141.64Z"/><path class="cls-2" d="M242.19,145.88c2.19-8,7.52-12.16,14.94-13.95s14.44.4,21.21,3.2c4.57,1.89,9,4.25,13,6.2-6.57,4.88-12.73,9.93-19.35,14.27-9,5.87-19.9,5.08-27.68-3-1.43-1.49-.79-1.8.66-2.35,7.78-2.91,15.64-5.55,23.94-6.59.47-.06.88-.58,1.32-.88a4.67,4.67,0,0,0-1.44-.56,80.28,80.28,0,0,0-24.31,3.18C243.81,145.57,243.12,145.68,242.19,145.88Z"/><path class="cls-1" d="M268.28,215.58c-4.95-5.34-11.33-8.61-18.08-11.8A13.51,13.51,0,0,1,262.92,202a18.73,18.73,0,0,1,10.45,8.31c2.92,4.83,5.41,9.92,8.14,15-5.27-.26-10-.44-14.74-.76a34,34,0,0,1-6.84-.92c-6.74-1.86-10.77-6.37-12.13-13.23-.53-2.67,0-3.22,2.55-2.15,5.21,2.22,10.35,4.61,15.51,7,.69.31,1.36.69,2,1Z"/><path class="cls-1" d="M97.18,216.22c.69-.36,1.37-.76,2.08-1.08,5.47-2.42,10.94-4.8,16.4-7.23,1.51-.68,1.91-.14,1.75,1.33a16.62,16.62,0,0,1-15.19,14.91c-2.06.22-4.13.22-6.19.35-3.93.27-7.86.56-12,.86,3-7.46,6-15,12.52-20.42,5.57-4.63,13-5.05,18.12-1.09-6.56,3.11-12.91,6.42-17.91,11.69Z"/><path class="cls-2" d="M136.13,54.62c2.67,5.15,5.33,10.31,8,15.44.91,1.73.71,2.37-1.48,2.33a15.23,15.23,0,0,1-14.27-12.63c-.74-5.14-1.34-10.31-2-15.46a14.77,14.77,0,0,0-.52-1.8c6.69,2,13,4.34,18.26,8.69,4.2,3.44,6.81,7.75,6.1,13.39-.23,1.88-1.08,3.68-1.86,6.18-3.46-6.55-6.73-12.21-11.77-16.58l-.43-.2Z"/><path class="cls-2" d="M238.29,42.66c-.69,5.92-1.13,11.84-2.1,17.66a14.84,14.84,0,0,1-14.45,12.06c-1.74,0-2.08-.52-1.3-2l7.49-14.32a4.75,4.75,0,0,0,.7-1.83c-5.41,4.18-8.75,10-11.95,15.92-4.35-6.44-2.4-14.34,4.73-19.57A54.4,54.4,0,0,1,238.29,42.66Z"/><path class="cls-2" d="M212.83,31.26c-2.15.28-3-.25-2.05-2.61,1.6-4.14,2.92-8.39,4.36-12.6a5.91,5.91,0,0,0,.5-2.32c-4.27,4.45-6.34,10.07-8.47,15.66-2.83-2.13-4.06-6.59-3.16-10.51,1.18-5.18,4.4-8.85,8.59-11.72,3.53-2.43,7.29-4.54,11.55-7.16a33.21,33.21,0,0,0-.39,3.91c.06,3.4.13,6.8.38,10.19a17,17,0,0,1-2.33,10.76c-.18.27-.06.72-.07,1.09Zm3.44-18.08-.19-.37a2,2,0,0,0-.34.43s.17.19.26.28Z"/><path class="cls-1" d="M168.85,142.6c0-6.42,4.69-11.77,10.39-11.55,6.52.25,10.41,5.15,10.46,11.46.05,6.5-4.2,11.49-10.4,11.6S168.56,148.27,168.85,142.6Z"/><path class="cls-1" d="M212.83,31.26,221.74,26l2-.92c0,5.28,0,10.36,0,15.43,0,7.69-4.24,12.83-11.76,14.63-2,.48-2.06-.28-1.63-1.6,1.51-4.56,3.13-9.08,4.71-13.62a9.07,9.07,0,0,0,.65-2.52C211.41,42,209.11,47.68,207,53.53c-3.55-2.64-3.8-7.17-2.91-11C205.3,37.47,208.84,34.18,212.83,31.26Z"/><path class="cls-1" d="M280.47,68.33c-5.9,2.37-10.59,6.58-15.43,10.77-1.18-6.92,2.24-12.55,9.07-15.27,4.53-1.81,12.42-2.79,18.57-2.34-2.33,4.95-4.45,10.08-7.1,14.92-3.13,5.7-9.94,8.12-16.2,6.51-2.24-.58-1.86-1.2-.57-2.41,3.49-3.29,6.94-6.64,10.46-9.9a9.58,9.58,0,0,1,2.16-1.19Z"/><path class="cls-1" d="M72.32,61.41c5.82-.16,11.75.14,17.45,2,5.11,1.68,8.86,4.94,10.33,10.36,0,.16.23.3.22.44-.1,1.51-.22,3-.34,4.55-1-.77-2-1.56-3.09-2.3-3.43-2.43-6.86-4.86-10.33-7.23a11.94,11.94,0,0,0-2.13-.93l-1.05,1.21a7.29,7.29,0,0,1,2.26,1c3.6,3.31,7.14,6.7,10.68,10.07,1.13,1.08,1.49,1.79-.55,2.35-7.32,2-14.5-1.64-17.71-9C76.27,69.74,74.3,65.69,72.32,61.41Z"/><path class="cls-2" d="M87.24,103.25c-4.71-1.72-9.35-3.44-14-5.09a4,4,0,0,0-2.44,0l15.11,8.35c-4.59,4.72-12.59,4.57-17.38-.25C66,103.7,63.82,100.7,61.37,98,58.12,94.4,58,94.27,63,93.28A60.74,60.74,0,0,1,73.8,92C80.85,91.88,85.89,96.29,87.24,103.25Z"/><path class="cls-2" d="M293.58,97.21c-4.5,1.75-9,3.52-13.51,5.26-.72.27-1.47.46-2.21.69a9.59,9.59,0,0,1,.24-2.65c2-5.27,6.24-8.28,11.58-8.36s10.47,1.2,15.69,1.95c1.18.16,1.25.71.41,1.63-2.9,3.18-5.67,6.49-8.58,9.66-4.65,5.07-12.33,6.46-18.49,1.27l15.37-8.54Z"/><path class="cls-1" d="M50.14,200.43c4-5.21,7.74-10.7,14.21-13.34,5-2,10.09-1,13.17,2.7C72,191.15,66.39,192.06,62,196l17-3c-2.09,7.65-8.17,11.49-15.79,10.17C58.91,202.37,54.68,201.37,50.14,200.43Z"/><path class="cls-1" d="M287.6,189.89c2.48-4.14,9.3-4.65,13.61-2.64,5.77,2.69,9.48,7.62,13.16,12.53.16.21-.15,1.13-.33,1.15-5.37.81-10.73,1.89-16.14,2.18-5.18.28-9.68-3.44-11.44-8.33-.45-1.27-.32-1.72,1.08-1.46q7,1.29,14,2.54a7.78,7.78,0,0,0,1.52-.05c-.34-.41-.6-1.05-1-1.2-4.43-1.53-8.88-3-13.32-4.44C288.47,190.07,288.15,190,287.6,189.89Z"/><path class="cls-2" d="M231.77,162.28a9,9,0,0,1-8.79,8.95,7,7,0,0,1-7.11-6.56c-.13-4.33,4.82-9.35,9.36-9.23S232,158.85,231.77,162.28Z"/><path class="cls-2" d="M141.88,171.23a9.17,9.17,0,0,1-8.95-8.82c0-4.08,2.64-7,6.43-7,4.8,0,9.38,4.44,9.39,9.13A6.83,6.83,0,0,1,141.88,171.23Z"/><path class="cls-1" d="M27.22,248.77c-1.66-2.82-1.62-2.76,1.1-4.61,2.88-2,5.7-4,8.49-6.08.47-.34.68-1,1-1.56a5.53,5.53,0,0,0-1.73-.7c-4.65-.19-9.31-.23-14-.45-2.54-.12-2.62-.42-1.22-2.57,2.48-3.81,5-7.61,7.42-11.46a8,8,0,0,0,.62-2,7,7,0,0,0-2.11.09c-3.71,1.36-7.38,2.84-11.1,4.18a5.11,5.11,0,0,1-2-.18c.46-.43.85-1.06,1.39-1.25q8.06-2.82,16.17-5.49a11.58,11.58,0,0,1,2.52-.28,10.49,10.49,0,0,1-.78,2.86c-2.64,4.21-5.41,8.33-8.09,12.52-1.36,2.13-1.08,2.66,1.47,2.77,5.15.23,10.3.36,15.45.58a8.74,8.74,0,0,1,2,.53c-.4.64-.66,1.48-1.23,1.89C37.56,241.34,32.38,245.05,27.22,248.77Z"/><path class="cls-1" d="M54,281.8c-1.81-1.34-2.2-2.52-.11-4.43a88.66,88.66,0,0,0,7.25-8.2,6.26,6.26,0,0,0,.7-1.69,6,6,0,0,0-1.81-.23c-4.51.87-9,1.84-13.51,2.71a13.51,13.51,0,0,1-2.62,0,16.37,16.37,0,0,1,.51-2.33c1.49-4.19,3-8.36,4.51-12.56a9.62,9.62,0,0,0,.2-2.3,8.33,8.33,0,0,0-2.19.64c-3.34,2.16-6.59,4.43-9.93,6.58a4.78,4.78,0,0,1-1.83.3c.34-.51.56-1.19,1-1.49q7.42-4.72,14.93-9.33a6.24,6.24,0,0,1,1.71-.46,5,5,0,0,1,.19,2c-1.69,5-3.5,9.95-5.22,14.93-.9,2.61-.66,2.84,2,2.3,5-1,10-2,15-2.93a8,8,0,0,1,2.35.26,9.59,9.59,0,0,1-1,2C62.19,272.25,58.13,277,54,281.8Z"/><path class="cls-1" d="M364.44,165.74c-.07,3.62-.07,3.64-3.56,3.45-5.5-.31-11-.53-16.51-1-2.54-.24-.66-2.2-.87-3.35l.55-.09c2.59.35,5.17.78,7.76,1,.43,0,1.27-1,1.34-1.58a4.25,4.25,0,0,0-2.43-4.72c-2.51-1.16-4.21-.7-6.35,1.58l-.65-.45c1.32-3.81,2.5-4.86,5.44-4.31a5,5,0,0,1,3,1.8c1.23,1.78,1.7,1.45,2.57-.25,1.31-2.57,3.22-3.44,5.67-3a5.44,5.44,0,0,1,4.14,5c.12,1.3,0,2.64,0,4h-.36c0-.16,0-.33,0-.49-.14-4.71-3.06-5.36-5.9-5.16s-5,3.17-4.42,6.28c.1.55.65,1.45,1,1.45,3.07,0,6.13-.08,9.2-.16A.56.56,0,0,0,364.44,165.74Z"/><path class="cls-1" d="M104.44,317c-2.11-6.65-4-12.76-6-18.86a11.19,11.19,0,0,0-1.2-2.08A10.37,10.37,0,0,0,95.49,298c-1.71,3.2-3.3,6.47-5,9.68-.21.39-.88.54-1.34.8,0-.53-.32-1.18-.11-1.57,3.08-5.74,6.23-11.45,9.47-17.36,1,2.94,2,5.88,2.91,8.83,1.14,3.52,2.21,7.07,3.37,10.59a7.48,7.48,0,0,0,1,1.54,6.68,6.68,0,0,0,1.28-1.33c1.83-3.42,3.56-6.89,5.42-10.28.27-.5,1.08-.69,1.64-1a4.82,4.82,0,0,1-.2,1.77c-2.77,5.17-5.6,10.31-8.42,15.45C105.25,315.61,105,316.1,104.44,317Z"/><path class="cls-1" d="M325,217.19a31.09,31.09,0,0,0-3.61,3.24c-5.5,6.64-4.26,14,3,18.58,7.56,4.74,15.53,3.08,19.75-4.17a12,12,0,0,0,1.39-3.69,19.51,19.51,0,0,0,.05-3.67l.69-.14c.26,1,.92,2.11.69,3-1.65,6.33-5.09,11.32-11.45,13.72-7.3,2.75-15.87-2.1-18.33-10.06-1.91-6.16,1.76-13.2,5.37-16.65.49-.47,1.48-.44,2.24-.64Z"/><path class="cls-1" d="M3.59,180c-2.95-.74-2.83-3.34-3.2-5.51-1-5.81-.26-11.3,4.26-15.52,4.36-4.09,9.57-4.94,15.17-2.85s8.24,6.4,9.14,12a26,26,0,0,1,0,6.42,4.52,4.52,0,0,1-1.65,2.65c.26-2.79.87-5.59.72-8.35a10.78,10.78,0,0,0-9.71-10.18,17.82,17.82,0,0,0-12.61,3.26,12.31,12.31,0,0,0-2.1,17.3C3.6,179.47,3.59,179.74,3.59,180Z"/><path class="cls-1" d="M353.21,197.19c-4.43-.81-9.15-1.63-13.84-2.62-.34-.07-.6-1.41-.53-2.13a1.65,1.65,0,0,1,1.34-.93c4.11.9,8.18,2,12.28,2.92s6.58-.78,7.84-5.46c.95-3.52-.6-6.49-4.24-7.45-4.14-1.1-8.37-1.87-12.54-2.86-.53-.12-1-.7-1.43-1.07a4.35,4.35,0,0,1,1.67-.35c4.17.94,8.34,1.92,12.49,3,3.53.9,5.43,3.2,5.2,6.84a22.93,22.93,0,0,1-1.56,6.7C359,196.05,356.4,197.24,353.21,197.19Z"/><path class="cls-1" d="M76.21,298.61a11.3,11.3,0,0,1-8.95-6.21c-1.73-3.18-.28-6,1.83-8.64,2.22-2.78,4.33-5.66,6.33-8.6.74-1.08,1.21-1.32,2.31-.53s1.11,1.42.21,2.48c-2.58,3-5,6.15-7.49,9.28-1.56,2-2.55,4.25-1,6.63s3.68,4.69,6.93,4.42a6.52,6.52,0,0,0,4-2c2.81-3.25,5.29-6.78,8-10.15.4-.5,1.22-.67,1.85-1a6.27,6.27,0,0,1-.65,1.84c-2.26,3-4.59,5.87-6.92,8.78C81,296.94,79.23,298.85,76.21,298.61Z"/><path class="cls-1" d="M248.26,298.8a17.2,17.2,0,0,0,2.11-1.07c1.2-.83,1.83-.34,2.84.57,3.44,3.1,7,6,10.66,8.91.93.75,1.95.78,1.83-.92-.32-4.78-.7-9.55-1-14.33a8.5,8.5,0,0,1,.54-2.31l.94.17c.37,7.31.75,14.63,1.1,21.95a3.85,3.85,0,0,1-.28,1.11,7.05,7.05,0,0,1-1.47-.68c-4.56-3.58-9.09-7.19-13.65-10.77C250.74,300.52,249.52,299.7,248.26,298.8Z"/><path class="cls-1" d="M171.86,313.33c-1.86,1.66-3.61,3.45-5.6,4.93-4.1,3.05-5.18,7.22-4.93,12,.06,1.1.4,2.34-1.65,2.09-1.84-.23-2.12-1.05-1.78-2.58a40.49,40.49,0,0,0,.95-5.1,6.24,6.24,0,0,0-.52-3.27c-2-3.69-4.1-7.28-6.19-11,2.35-.28,3.92.09,4.78,2.65.77,2.3,2.42,4.3,3.59,6.49.76,1.41,1.57,1.26,2.49.26,1.86-2,3.65-4.09,5.57-6a13.64,13.64,0,0,1,2.55-1.66Z"/><path class="cls-1" d="M226.93,327.24c-.49.45-.91,1.16-1.47,1.29-2.89.71-5.81,1.32-8.73,1.83a1.74,1.74,0,0,1-1.4-1c-1.26-5.85-2.33-11.75-3.67-17.57-.29-1.27-.36-1.79,1-2.07,2.89-.6,5.76-1.26,8.65-1.86a3,3,0,0,1,1,.13c-.27.31-.5.85-.82.91-1.54.26-3.13.28-4.65.62s-2.59,1-1.76,3a16,16,0,0,1,.75,3.61c.32,1.84,1,3,3.16,2a19.46,19.46,0,0,1,3.32-1c.26-.07.58.11.88.17-.14.35-.21,1-.42,1a22.07,22.07,0,0,1-3.41.57c-2.12.16-3,1-2.32,3.23.52,1.65.86,3.37,1.22,5.07.29,1.42.86,2,2.42,1.42,1.92-.72,3.93-1.2,5.9-1.79Z"/><path class="cls-1" d="M148.63,310.72c-1.79-.61-3.63-1.1-5.35-1.85-1.47-.64-2.1-.33-2.47,1.21-1.29,5.28-2.72,10.53-4,15.82-.32,1.37-.81,1.88-2.16,1.47-1.11-.34-1.69-.72-1.23-2.17,1.58-5,3-10.09,4.44-15.14.56-1.94.14-3.2-2.14-3.37a22.63,22.63,0,0,1-3.66-.56c-.44-.11-.77-.65-1.15-1a3.9,3.9,0,0,1,1.37-.15c4.14,1.07,8.26,2.19,12.39,3.29a26.38,26.38,0,0,1,3.09.79c.54.23.91.87,1.36,1.32Z"/><path class="cls-1" d="M355.85,208.47c-1.25,3.33-2.37,6.43-3.62,9.47-.12.3-1.1.52-1.53.37-5.72-2.06-11.41-4.21-17.14-6.28-1.51-.54-1.09-1.47-.52-2.27a1.89,1.89,0,0,1,1.62-.7c5.11,1.85,10.19,3.76,15.23,5.78,1.83.73,2.82.4,3.22-1.56a46,46,0,0,1,1.11-4.53c.12-.41.71-.67,1.08-1Z"/><path class="cls-1" d="M236.76,303.14c2.67-.91,5.53-.4,6.86,1.23a5.58,5.58,0,0,1,.27,7.1c-1,1.48-.52,2.16.74,3,2.62,1.68,5.19,3.44,7.8,5.18-1.82,1.36-3.42,1.35-5.23-.25a39,39,0,0,0-5.49-3.79,9.67,9.67,0,0,0-2.45-.72.49.49,0,0,0-.12-.45c2.12-1.38,3.69-3,2.94-5.84-.94-3.51-2.22-4.77-5.33-5.16A.33.33,0,0,0,236.76,303.14Z"/><path class="cls-1" d="M115.38,320.85c2.21-5.94,4.47-11.84,6.57-17.79.57-1.6,1.21-1.68,2.67-1.15,1.94.71.66,1.57.33,2.4-1.91,4.91-3.9,9.78-5.72,14.72C118.05,322.22,118.16,322.26,115.38,320.85Z"/><path class="cls-1" d="M285,302a15.83,15.83,0,0,1-2.29,1.51c-.24.1-.92-.39-1.17-.76-3.43-5-6.74-10.15-10.27-15.11-1.21-1.69.36-1.69.95-2.34.81-.89,1.21-.45,1.78.42,3.4,5.16,6.87,10.26,10.33,15.38C284.52,301.35,284.72,301.6,285,302Z"/><path class="cls-1" d="M237.75,315.44a7.56,7.56,0,0,0-.14,2.44,18.12,18.12,0,0,0,1.75,4.33c.93,1.54.56,2.16-1,2.77-2,.77-1.69-.85-2-1.75-1-2.92-1.91-5.89-3-8.8s-2.23-5.78-3.41-8.8l3.3-1.14.49.43c-.49,1.84,2,9,3.52,9.92a1.29,1.29,0,0,0,.49.07Z"/><path class="cls-1" d="M27,195.18c1.32,4.41.58,8.46-2.91,11.51a10.69,10.69,0,0,1-11.74,1.92A17.39,17.39,0,0,1,9,206.21l.64-.64c8.24,3.75,17.16-1.76,16.86-10.41l.23,0Z"/><path class="cls-1" d="M6.13,201.18c.08-2.35-.27-4.83.32-7,1.2-4.43,4.81-6.3,9.06-6.83a9.67,9.67,0,0,1,9.58,4.35l-.09.77a20,20,0,0,0-4-2.22c-4.09-1.18-7.57.76-10.79,2.85a7.34,7.34,0,0,0-3.37,8.12Z"/><path class="cls-1" d="M316.24,275.06c-2.76,3.14-2.75,3.13-5.71.45-3.81-3.44-7.6-6.91-11.49-10.27-.89-.76-.89-1.24-.15-1.94s1.19-1.11,1.79-1.67a.47.47,0,0,0,0,.47c1.26,1.45,2.31,3.2,3.82,4.3,3.07,2.24,5.33,5.3,8.31,7.58a10.24,10.24,0,0,0,2.78,1Z"/><path class="cls-1" d="M300.65,290.4c-2.85,3-9.64,2.63-12.11.66-4.47-3.56-5.91-7.88-4-13l.52,1c.38,5.69,5.57,11.38,11.11,11.84,1.46.12,3-.71,4.49-1.11C300.67,290,300.66,290.19,300.65,290.4Z"/><path class="cls-2" d="M317.06,273.48c.77-1.16,1.52-2.34,2.33-3.48a3.25,3.25,0,0,1,.82-.61c.09.43.41,1,.24,1.24-.95,1.14-2,2.17-3.06,3.24Z"/><path class="cls-2" d="M6.13,201.18H6.8c.94,1.46,1.88,2.93,2.83,4.39l-.64.64Z"/><path class="cls-1" d="M289.18,272.13c2.55-1.71,2.55-1.71,4.19-.84l-4.19,1.55Z"/><path class="cls-2" d="M309.08,266.51c.84-.92,1.67-1.85,2.5-2.77l.34.32c-.83.94-1.68,1.86-2.53,2.78C309.3,266.73,309.19,266.62,309.08,266.51Z"/><path class="cls-2" d="M25,192.43l.09-.77L27,195.18l-.23,0-.23,0Z"/><path class="cls-2" d="M303.58,287l1.26-2.62.61.32-1.51,2.75Z"/><path class="cls-2" d="M233.75,304.92l-.49-.43,3-.95,0,0Z"/><path class="cls-2" d="M285.09,279l-.52-1c.34-.7.68-1.39,1-2.08l.46.31Z"/><path class="cls-2" d="M344.05,164.71l-.55.09.18-3.07H344Z"/><path class="cls-2" d="M237.75,315.44c0-.17,0-.35,0-.53l1.38-.51a.49.49,0,0,1,.12.45Z"/><path class="cls-2" d="M304.23,257.38l1.39-.86c-.29.39-.57.79-.85,1.18Z"/><path class="cls-2" d="M364.16,163.73h.36c0,.67,0,1.34-.08,2a.56.56,0,0,1-.43-.09Z"/><path class="cls-2" d="M286.87,274.76l-.83,1.52-.46-.31,1.05-1.46Z"/><path class="cls-2" d="M303.25,288.13l-1,1-.39-.34,1-1Z"/><path class="cls-2" d="M300.65,290.4c0-.21,0-.42,0-.63l.72-.61.3.42Z"/><path class="cls-2" d="M289.18,272.13v.71l-.75.49a1.43,1.43,0,0,0-.27-.28Z"/><path class="cls-2" d="M316.24,275.06l-.63-.05.94-1,.5.32Z"/><path class="cls-1" d="M344,161.74h-.34c0-.4,0-.81,0-1.22l.65.45Z"/><path class="cls-2" d="M303.94,287.43l-.69.7-.38-.39.71-.76Z"/><path class="cls-2" d="M300.7,262.1a.47.47,0,0,1,0-.47l.49-.53,0,0Z"/><path class="cls-2" d="M3.59,180c0-.28,0-.55,0-.83l.53.71Z"/><path class="cls-2" d="M309.39,266.84l-.76.22h0l.43-.56C309.19,266.62,309.3,266.73,309.39,266.84Z"/><path class="cls-2" d="M308.63,267.06l-.09.5-.21-.06.32-.43Z"/><path class="cls-2" d="M288.43,273.33l-.77.21,0,0,.47-.53A1.43,1.43,0,0,1,288.43,273.33Z"/><path class="cls-2" d="M287.19,274.07l.5-.49,0,0-.51.5Z"/><path class="cls-2" d="M316.55,274l.51-.49.33.39-.35.42Z"/><path class="cls-2" d="M287.15,274l-.28.72-.24-.25.56-.44Z"/><path class="cls-1" d="M153.31,160.74a3.47,3.47,0,0,1,.29.25s-.07.11-.11.17A1.12,1.12,0,0,1,153.31,160.74Z"/><path class="cls-2" d="M303.28,258.34l.65-.66c.1.16.2.31.29.47l-.51.49Z"/><path class="cls-2" d="M303.71,258.64l-.53.47-.26-.27.36-.5Z"/><path class="cls-2" d="M302.68,259.6l.24-.75a3.19,3.19,0,0,1,.26.26l-.53.46Z"/><path class="cls-2" d="M304.77,257.7l-.55.45c-.09-.16-.19-.31-.29-.47a.72.72,0,0,1,.3-.3Z"/><path class="cls-2" d="M236.76,303.14a.33.33,0,0,1,0,.26l-.51.1,0,0Z"/><path class="cls-2" d="M302.18,260.1l.5-.5,0,0-.51.49Z"/><path class="cls-2" d="M302.14,260.06c-.16.17-.33.33-.5.5l0,0,.5-.5Z"/><path class="cls-2" d="M301.17,261.1l.51-.5,0,0-.5.5Z"/><path class="cls-1" d="M217,119.46l.59,0-.23.49Z"/><path class="cls-2" d="M301.41,289.16l.45-.38c.12.12.25.23.38.34l-.53.46Z"/></g></g></svg>