<svg xmlns="http://www.w3.org/2000/svg" viewBox="0 0 479.91 73.07">
    <defs>
        <style>.cls-1{fill:#0ea5e920;}</style>
    </defs>
    <g id="Layer_2" data-name="Layer 2">
        <g id="Layer_1-2" data-name="Layer 1">
            <path class="cls-1"
                d="M14.39,0a32,32,0,0,1,.7,3.59c.2,2.65.3,5.32.37,8,.11,3.77.19,7.52,1.65,11.11a20,20,0,0,1,1.23,5.06,5.12,5.12,0,0,1-.64,2.81c-1.54,3-2.41,6-1.62,9.38A6.83,6.83,0,0,0,18.94,44c2.71,1.89,3,3,1.9,6.06a12.73,12.73,0,0,0-.58,1.56c-.24,1.08-.53,2.21.58,3.06,3.63,2.77,5.28,6.67,6.25,10.94a11.53,11.53,0,0,1,.38,1.62c.25,3.07,2.41,4.16,5,4.81a18.91,18.91,0,0,0,9.06-.28,22.55,22.55,0,0,1,5.55-.62c6.26.14,11.42-1.87,15.43-6.86a53.6,53.6,0,0,0,5.93-8.49,14.18,14.18,0,0,0,.47-12.73c-1.11-2.63-2.29-5.25-3.59-7.79a6.31,6.31,0,0,0-6.19-3.69,3.5,3.5,0,0,1-2.52-.82c-3-2.53-6.06-4.94-8.9-7.61s-2.42-4.77,1-6.58c2.2-1.18,4.54-2.09,6.77-3.21a10.08,10.08,0,0,0,2.68-1.75,6.46,6.46,0,0,1,4.77-1.81,14.56,14.56,0,0,0,3.31-.26,3.1,3.1,0,0,0,2.46-3.12A14.1,14.1,0,0,0,67.41,0h.72c.37,1.41.79,2.8,1.1,4.23.61,2.79-.52,5.24-2.86,5.92a12.12,12.12,0,0,1-3.66.35,7,7,0,0,0-4.42,1.64,61.38,61.38,0,0,1-6.89,3.7,32.19,32.19,0,0,0-3.63,2C46.18,19,46,20.5,47.29,22c3,3.51,6.72,6.21,10.43,8.91A2.1,2.1,0,0,0,59,31.1a6.37,6.37,0,0,1,6.4,3.33,87.34,87.34,0,0,1,4.85,11c1.2,3.37.57,6.75-1,10a41.23,41.23,0,0,1-8.36,11.42c-3.52,3.53-8,4.82-13,5a58.7,58.7,0,0,0-7.92.89,17.18,17.18,0,0,1-9.4-.68A5.12,5.12,0,0,1,27,67.93a44,44,0,0,0-1.49-5.6,14.48,14.48,0,0,0-5-7.15,2.7,2.7,0,0,1-1-3.06c.33-1.18.78-2.32,1.15-3.49a2.77,2.77,0,0,0-1.14-3.45,8.7,8.7,0,0,1-4.35-6.63,10.55,10.55,0,0,1,1.39-6.77c1.87-3,1.31-5.84.13-8.67a26.52,26.52,0,0,1-1.83-9.28c-.14-3.27-.1-6.54-.3-9.8a25.23,25.23,0,0,0-.93-4Z" />
            <path class="cls-1"
                d="M403.48,0a12.65,12.65,0,0,0-1.41,6c.11,2.53,1.39,3.79,3.91,3.86.8,0,1.6,0,2.4,0a7,7,0,0,1,4.22,1.69,32.69,32.69,0,0,0,4.92,2.85c1.88,1,3.89,1.83,5.68,3,2,1.28,2.2,3.1.71,4.88-3,3.61-6.84,6.34-10.61,9.08a2.46,2.46,0,0,1-1.37.24A6.67,6.67,0,0,0,405.12,36c-1.37,3.18-2.92,6.29-4,9.55a11.83,11.83,0,0,0,.67,9A41.31,41.31,0,0,0,410,66.25a16.43,16.43,0,0,0,12.21,4.89,38.7,38.7,0,0,1,9.09,1.09,14.35,14.35,0,0,0,9-.83A4.68,4.68,0,0,0,443.15,68,52.61,52.61,0,0,1,446,59.45,14.5,14.5,0,0,1,449.7,55a2.79,2.79,0,0,0,.93-3,16.4,16.4,0,0,0-.79-2.12c-1-2.63-.67-3.94,1.67-5.53A7.4,7.4,0,0,0,454.9,37a13.28,13.28,0,0,0-1.39-5.25c-1.66-2.81-1.35-5.59-.24-8.23a31.69,31.69,0,0,0,2-12.16,36.81,36.81,0,0,1,.06-4.07c.29-2.43.74-4.85,1.12-7.28h.72a21.68,21.68,0,0,0-1.32,7.73,85.72,85.72,0,0,1-.36,9.08,67.25,67.25,0,0,1-2,7.77,11.82,11.82,0,0,0-.57,2.9,7,7,0,0,0,.59,2.83c1.36,2.92,2.52,5.84,1.81,9.17a8.3,8.3,0,0,1-3.56,5.29c-2.09,1.44-2.32,2.36-1.46,4.68.34.93.69,1.87,1,2.82a2.41,2.41,0,0,1-.91,2.77c-3.06,2.24-4.63,5.4-5.64,8.91a19.54,19.54,0,0,0-.84,3.24c-.38,3.46-2.43,4.82-6.21,5.57a18.19,18.19,0,0,1-8.16-.35,24,24,0,0,0-5.92-.61c-6.23.07-11.41-2-15.5-6.83a54.41,54.41,0,0,1-6.39-9.18A13.4,13.4,0,0,1,401,43.94a88.89,88.89,0,0,1,4.16-9.1,6.71,6.71,0,0,1,6.69-3.75,2.41,2.41,0,0,0,1.54-.41c3.15-2.57,6.25-5.19,9.35-7.82a5.07,5.07,0,0,0,.92-1.09c1-1.52.92-2.85-.6-3.83a48,48,0,0,0-5.46-2.86,22.28,22.28,0,0,1-6-3.62,4.74,4.74,0,0,0-2.5-.89c-1.33-.2-2.72-.06-4-.29a3.78,3.78,0,0,1-3.48-3.91,23.94,23.94,0,0,1,.64-4.58A13.38,13.38,0,0,1,402.76,0Z" />
            <path class="cls-1"
                d="M416,0a24.25,24.25,0,0,0-1.51,2.41c-.71,1.47-.52,2.54.92,3.25,3.19,1.58,6.45,3,9.75,4.36,2.07.83,4.32,1.19,6.39,2a17.41,17.41,0,0,1,4.35,2.4c1.68,1.29,1.75,3.29.44,5a7.32,7.32,0,0,1-1.17,1.19,148.75,148.75,0,0,1-16.66,11.59c-3.26,2-6.64,4-8.87,7.15a27.09,27.09,0,0,0-3.84,7.11c-1.25,4-.45,7.41,3.39,9.9s7.66,5.41,12.13,7a14.28,14.28,0,0,0,8.33.87,13.3,13.3,0,0,0,4.38-2,3.87,3.87,0,0,0,1.31-4.8A36.38,36.38,0,0,1,434,53.34c-.7-3,.61-5.49,2.29-7.82a18.16,18.16,0,0,1,5.4-4.65,8.56,8.56,0,0,0,4.48-7.17,5,5,0,0,0-.69-2.45c-.88-1.56-1.94-3-2.9-4.53a14.43,14.43,0,0,1-2.11-6.27,4.58,4.58,0,0,1,2.5-4.88c1.15-.61,2.37-1.1,3.55-1.66a18,18,0,0,0,1.78-1,3.89,3.89,0,0,0,1.86-4.61c-.67-2.78-1.36-5.56-2-8.34h.48c.77,3,1.61,6.06,2.29,9.12a3.4,3.4,0,0,1-1.49,3.57,51.22,51.22,0,0,1-4.77,2.63,17,17,0,0,0-2.16,1.23c-1.83,1.4-1.46,3.39-1.19,5.27.4,2.79,2,5.06,3.49,7.34a14.35,14.35,0,0,1,1.82,3.07,6.18,6.18,0,0,1-.77,5,10.9,10.9,0,0,1-4.1,4.26c-3.4,2-6.1,4.69-7.12,8.72-.48,1.88.09,3.6.64,5.34a20.84,20.84,0,0,1,.85,2.83c.33,2.08-.69,3.6-2.32,4.77-2.8,2-6,2.19-9.17,1.63a20.67,20.67,0,0,1-8.73-3.6c-2.19-1.58-4.66-2.76-6.89-4.29-2.84-1.93-4.56-4.6-4.23-8.16a11.69,11.69,0,0,1,1.18-4c1.07-2.16,2.06-4.53,3.69-6.22a41.47,41.47,0,0,1,7.89-6.32A184.22,184.22,0,0,0,434.3,20.59c3.29-2.58,3.15-5.2-.64-7-2.35-1.12-5-1.64-7.42-2.58-3.4-1.3-6.75-2.74-10.1-4.15a6.06,6.06,0,0,1-1.3-.85A2.67,2.67,0,0,1,414,2.13c.38-.73.85-1.42,1.28-2.13Z" />
            <path class="cls-1"
                d="M22.55,0C22,2.35,21.47,4.69,21,7.05a10.26,10.26,0,0,0-.43,3.12,4.24,4.24,0,0,0,2.71,3.26c1,.48,2,.92,3,1.37,3.79,1.68,5,3.94,3.57,7.84A41.17,41.17,0,0,1,26.06,30c-1.92,3.09-1.89,5.89.59,8.67a14.51,14.51,0,0,0,3,2.5,16.79,16.79,0,0,1,6.45,7,8,8,0,0,1,.18,6.82c-.31.73-.53,1.5-.8,2.25-1,2.74.3,4.37,2,5.51,3.23,2.13,6.73,2,10.26,1.06a20,20,0,0,0,6.89-3.16c2.45-1.75,5.23-3.07,7.61-4.92C65.93,53,66.48,48.23,64,44.34c-.78-1.23-1.22-2.69-2-3.89A13.57,13.57,0,0,0,59,37c-4.21-3-8.59-5.75-12.84-8.7q-5.25-3.66-10.31-7.55a6.54,6.54,0,0,1-2.15-2.78A3.29,3.29,0,0,1,35.35,14a24.06,24.06,0,0,1,4.36-2.12c4.38-1.64,8.82-3.15,13.21-4.77A13,13,0,0,0,55.5,5.66a2.13,2.13,0,0,0,.88-3.08A22.42,22.42,0,0,0,54.69,0h.72c.57,1,1.2,2,1.7,3a1.89,1.89,0,0,1-.68,2.55,31.39,31.39,0,0,1-5.38,3c-3.77,1.46-7.67,2.58-11.47,4a18.89,18.89,0,0,0-4.21,2.18A2.81,2.81,0,0,0,34.81,19a7.45,7.45,0,0,0,1.33,1.36A181.4,181.4,0,0,0,53.75,32.44c3.35,2.08,6.82,4.23,8.84,7.89a57.44,57.44,0,0,1,3,5.65,9,9,0,0,1-3.25,10.53c-2.41,1.68-5.06,3-7.45,4.74A21.07,21.07,0,0,1,46.1,64.8a11.92,11.92,0,0,1-8.55-1.3c-2.74-1.68-3.54-3.81-2.45-6.79l.24-.68c1.84-5.14.75-9.1-3.52-12.59a30.24,30.24,0,0,0-2.94-2A9.72,9.72,0,0,1,24,33.85a5.55,5.55,0,0,1,.84-2.9C26,28.9,27.44,27,28.44,24.9a17.36,17.36,0,0,0,1.24-4.82c.32-2-.72-3.37-2.44-4.24-1.52-.76-3.13-1.36-4.62-2.19-2.36-1.32-3.05-3-2.46-5.57.41-1.81.87-3.61,1.3-5.42.22-.88.41-1.77.61-2.66Z" />
            <path class="cls-1"
                d="M462.49,0c-1.82,4.51-1.18,9.08-.34,13.66a87.14,87.14,0,0,1,1.18,15.72A12.63,12.63,0,0,0,464.4,34c1.67,4.37,4.09,8.22,8.24,10.62a35.6,35.6,0,0,0,5.62,2.19,11.38,11.38,0,0,0,1.51.35l-.06.41c-.51,0-1-.06-1.53-.16-6.77-1.39-11-5.77-13.75-11.81a18.58,18.58,0,0,1-1.74-8.51c.19-5.72-.8-11.34-1.64-17-.51-3.41-.58-6.85,1-10.1Z" />
            <path class="cls-1"
                d="M466.09,0c-.66,4.79.24,9.51.65,14.26.21,2.41,0,4.85.15,7.27.3,4.58-.52,9.29,2.06,13.61a14.85,14.85,0,0,0,9.3,6.77c.53.14,1,.37,1.54.56l-.13.41c-.85-.25-1.7-.51-2.55-.73-7.35-1.94-11-9.66-10.78-15.33A94.82,94.82,0,0,0,465.72,10,80.25,80.25,0,0,1,465.41.8a2.93,2.93,0,0,1,.2-.8Z" />
            <path class="cls-1"
                d="M0,43.35c3.48-2.85,5.42-6.71,6.94-10.81a8.46,8.46,0,0,0,.49-2.77A115.7,115.7,0,0,1,9.05,10.82,19.71,19.71,0,0,0,8.43.47,1.45,1.45,0,0,1,8.4,0h.48c1.45,3.89,1.17,7.85.62,11.85-.43,3.22-.85,6.45-1.1,9.69-.22,2.93-.07,5.9-.34,8.82a14.81,14.81,0,0,1-1.31,4.18,22.93,22.93,0,0,1-6,8.83,4.79,4.79,0,0,1-.79.46Z" />
            <path class="cls-1"
                d="M469.93,0c.45,4.55,1,9.09,1.32,13.64a67.26,67.26,0,0,1-.29,7.5c0,.24-.07.48-.08.71-.08,2-.19,4-.23,6-.12,4.79,3.86,10.16,8.48,11.51a1.13,1.13,0,0,1,.6.48,5.48,5.48,0,0,1-3.86-1.29,13.9,13.9,0,0,1-5.67-10c-.22-2.87.29-5.78.37-8.68s.11-5.51,0-8.25S470,6,469.69,3.21c-.1-1.07-.16-2.14-.24-3.21Z" />
            <path class="cls-1"
                d="M0,37.6A14.57,14.57,0,0,0,3.71,26.9c-.11-1.34.11-2.7.13-4.06,0-2-.11-4,0-5.95.21-3.37.67-6.73.84-10.1C4.82,4.53,4.62,2.26,4.56,0h.72A94.91,94.91,0,0,1,5,10c-.83,6.38-.43,12.78-.72,19.17A13.57,13.57,0,0,1,0,38.32Z" />
            <path class="cls-1"
                d="M0,67.54c1.75-.08,3.49-.14,5.24-.24a2.39,2.39,0,0,0,2.23-3.15A9,9,0,0,0,6.22,61.5,5.35,5.35,0,0,1,5.75,55c.14-.24.3-.47.45-.7,1.37-2.18,1-3.51-1.3-4.73-.85-.46-1.54-1.19-2.36-1.73a1.48,1.48,0,0,0-1.1-.19A8,8,0,0,0,0,48.38V47.9l1.08-.74a1.3,1.3,0,0,1,2,.33A6.49,6.49,0,0,0,4.88,48.9C7.67,50.29,8.22,52,6.59,54.67s-1.49,4.2.23,6.81A8.75,8.75,0,0,1,8.09,65a2.68,2.68,0,0,1-2.52,2.8c-1.85.19-3.71.33-5.57.49Z" />
            <path class="cls-1"
                d="M27.11,0a12.94,12.94,0,0,0-1.74,5.75c-.05,2.69,2,4.32,4.56,3.42,2.12-.75,4.2-1.66,6.24-2.59,1.88-.87,3.67-1.91,5.54-2.79A3.35,3.35,0,0,0,43.9,0h.72A4.18,4.18,0,0,1,42,4.26C38.25,6,34.56,7.84,30.78,9.49c-3.12,1.36-6.3-.49-6-3.5A33.42,33.42,0,0,1,26.07.87,9.07,9.07,0,0,1,26.39,0Z" />
            <path class="cls-1"
                d="M427,0a2.75,2.75,0,0,0,1.47,3.42c4,1.94,7.91,3.85,12,5.62a5,5,0,0,0,3,0c1.71-.41,2.33-1.72,2-4a9.93,9.93,0,0,0-1.9-5h.72a12.37,12.37,0,0,1,1.82,6.09c.17,2.68-2.87,4.72-5.61,3.55-4.18-1.79-8.28-3.8-12.37-5.81A3.5,3.5,0,0,1,426.27,0Z" />
            <path class="cls-1"
                d="M471.6,0A20.13,20.13,0,0,0,472,8.25a14.81,14.81,0,0,0,2.75,6.13,6.83,6.83,0,0,0,4.45,2.75,1.73,1.73,0,0,1,.46.12c.06,0,.07.13.19.37a3.85,3.85,0,0,1-.86.06,7.63,7.63,0,0,1-4.77-3.13A17.25,17.25,0,0,1,470.9,5c-.1-1.66,0-3.33,0-5Z" />
            <path class="cls-1"
                d="M0,64.19s.08,0,.11,0C.92,64,2.23,64,2.42,63.58a3.37,3.37,0,0,0-.48-2.48,4,4,0,0,1-.29-4c1-2,.94-2.16-1-3.31L0,53.41v-.72c.08,0,.17,0,.23.05.84.69,2.11,1.26,2.4,2.14S2,56.9,1.94,58a8.54,8.54,0,0,0,.44,2.71c.13.52.55,1,.73,1.48a1.79,1.79,0,0,1-1.57,2.58c-.51.1-1,.12-1.54.18Z" />
            <path class="cls-1"
                d="M435.38,0C437.14.53,438,2,439,3.35a5.32,5.32,0,0,0,1.36,1,4.9,4.9,0,0,0,.93-1.65A12.87,12.87,0,0,0,441.14,0h.48a4.38,4.38,0,0,1-.06,3.9c-.6,1.29-1.42,1.44-2.4.44a9.66,9.66,0,0,1-1.23-1.61,4.17,4.17,0,0,0-2.42-2c-.32-.08-.57-.47-.85-.72Z" />
            <path class="cls-1"
                d="M29.51,0a17.3,17.3,0,0,0,.11,3.46c.25,1.14.95,1.2,1.78.32A3.49,3.49,0,0,0,32,3a6.5,6.5,0,0,1,3.27-3h1c-.19.19-.36.5-.58.56-1.68.38-2.41,1.75-3.36,3-.49.62-1.37,1.41-2,1.34-1.06-.11-1.45-1.25-1.48-2.29A22.47,22.47,0,0,1,29,0Z" />
            <path class="cls-1"
                d="M1.44,0C1,3.81.65,7.62.24,11.43a4.76,4.76,0,0,1-.24.79V7a6.9,6.9,0,0,0,.21-.78L1,0Z" />
            <path class="cls-1"
                d="M0,19.64a15.31,15.31,0,0,1,.44,2.18c.12,2.37.22,4.74.21,7.11a6.9,6.9,0,0,1-.65,2Z" />
            <path class="cls-1"
                d="M478.32,0c.45,2,.9,3.94,1.42,6.18A12.81,12.81,0,0,1,477.86,1c-.08-.34-.17-.68-.26-1Z" />
            <path class="cls-1"
                d="M479.71,51.63a3.88,3.88,0,0,1-3.22.21,27.71,27.71,0,0,1-4.5-2.31,23,23,0,0,1-2.39-1.8c-.57-.43-1-.36-1.54.19A7.79,7.79,0,0,1,466,49.48c-2.26,1.13-2.76,2.55-1.45,4.71,1.14,1.88,1.82,3.8.81,6-.21.46-.54.87-.78,1.32A16.26,16.26,0,0,0,463.34,64a2.44,2.44,0,0,0,2.36,3.3q6.89.59,13.76,1.21c.09,0,.17.11.25.41-1.51,0-3,.1-4.51,0-2.8-.23-5.6-.58-8.39-.9a12.64,12.64,0,0,1-2.23-.35,3.08,3.08,0,0,1-1.72-4.05,8.36,8.36,0,0,1,1.21-2.31,5.17,5.17,0,0,0,.37-6.2,15.05,15.05,0,0,1-.75-1.36,3.13,3.13,0,0,1,1.27-4.3c1.07-.71,2-1.59,3.14-2.24a1.87,1.87,0,0,1,1.57,0,26.11,26.11,0,0,1,3.08,2.25,7.54,7.54,0,0,0,6.09,1.85,5.73,5.73,0,0,1,.83,0Z" />
            <path class="cls-1"
                d="M479.75,65.19a5.92,5.92,0,0,1-1.17.18c-2.47-.13-4.93-.29-7.4-.45a19.76,19.76,0,0,1-2-.21,1.74,1.74,0,0,1-1.55-2.42,6,6,0,0,1,.76-1.47,3.42,3.42,0,0,0,.2-3.7c-1.05-2-.88-2.56,1.11-3.71.1-.06.21-.11.31-.18,1.51-1.1,1.54-1.15,3,.1a5.52,5.52,0,0,0,4.91,1.55,4,4,0,0,1,1.83.15c-1.51.37-3.06,1-4.54.25a37.41,37.41,0,0,1-3.89-2.43c-.63.44-1.25.93-1.92,1.33a1.37,1.37,0,0,0-.61,2.11c1.23,1.85,1,3.49-.23,5.28-1.08,1.55-.39,2.58,1.55,2.71,3.2.21,6.41.47,9.61.71Z" />
            <path class="cls-1"
                d="M477.35,18.54l-1.32-1c1.24.87,3,1.07,3.88,2.65-.28,0-.36,0-.4,0-1.75-1.35-1.91-1.33-2.28.77a54.73,54.73,0,0,0-.81,6.23A8.53,8.53,0,0,0,479.63,35c.08.06.08.21.12.33a3.69,3.69,0,0,1-2.48-2.05c-1.56-2.56-1.6-5.36-1.28-8.18.2-1.73.57-3.43.9-5.14A10.32,10.32,0,0,1,477.35,18.54Z" />
            <path class="cls-1"
                d="M479.68,58.76a16.94,16.94,0,0,1-2.72.32,18.9,18.9,0,0,1-2.75-.49c-.28-.05-.57-.07-.86-.1,0,.24,0,.49-.06.73-.08.6-.18,1.21-.29,1.94,2.18.47,4.45,0,6.72-.34l.07.4a13,13,0,0,1-2.26.53c-1.35.09-2.72.07-4.07,0-1.06,0-1.28-.49-.91-1.48a6.75,6.75,0,0,0,.09-1.21,1.81,1.81,0,0,1,.41-1c.23-.2.82-.35,1-.21,1.32,1,2.73.61,4.15.45a8.14,8.14,0,0,1,1.54.13Z" />
            <path class="cls-1"
                d="M43.36,56.29c.14-1.22.26-2.45.44-3.66A4.86,4.86,0,0,0,42,47.55c-2-1.5-4-3-6-4.55a10.83,10.83,0,0,1-3.87-6.54,2.1,2.1,0,0,1,0-.9c.47-1.8,1-3.57,1.47-5.37.88-3.71,4.25-3.94,6.41-2.78,1.29.7,2.52,1.54,3.81,2.25a47.41,47.41,0,0,0,6.73,3.52c4.56,1.62,7,4.88,8.19,9.33.5,1.83,1,3.68,1.45,5.52s0,3.88-1.7,4.83a51.23,51.23,0,0,0-8,6,6.28,6.28,0,0,1-1.89,1C46.23,60.72,43.11,60,43.36,56.29Zm3.49,3.33A6,6,0,0,0,51,57.77a34.23,34.23,0,0,1,6.76-5.07c1.81-.94,2.32-2.53,1.82-4.6s-1-4-1.55-6c-1.16-3.89-3.34-6.8-7.37-8.29A58.56,58.56,0,0,1,43.5,30.1a42.71,42.71,0,0,0-3.92-2.26c-2.37-1-4.73-.58-5.49,2.53-.42,1.73-1,3.42-1.41,5.14a2.58,2.58,0,0,0,0,1.17,11.44,11.44,0,0,0,4.49,6.68q2.74,2,5.44,4.09a4.06,4.06,0,0,1,1.72,3.62c-.11,1.62-.22,3.25-.41,4.87C43.68,58.3,44.67,59.6,46.85,59.62Z" />
            <path class="cls-1"
                d="M410.4,49c1.25-4.38,1.49-9.57,5.45-13.28A6.92,6.92,0,0,1,418,34.21c4.5-1.62,8.46-4.23,12.52-6.66a4.9,4.9,0,0,1,4-.52,3.12,3.12,0,0,1,2.25,2.11,31.13,31.13,0,0,1,1.85,6.5c.14,1.4-.65,3-1.33,4.35-1.08,2.15-3,3.58-4.93,4.95-1.07.77-2.1,1.59-3.19,2.31-2.12,1.38-2.44,3.4-2.13,5.67a31.4,31.4,0,0,1,.39,3.2c.13,3.25-2.1,5-5.14,3.75A22.68,22.68,0,0,1,418.06,57c-1.61-1.15-3.17-2.4-4.83-3.48S410.44,51.42,410.4,49Zm13.86,10.61c1.63,0,2.56-.84,2.52-2.81,0-1.66-.24-3.33-.36-5a4.87,4.87,0,0,1,1.86-4.53c.54-.41,1.09-.81,1.62-1.24a52.57,52.57,0,0,0,5.91-5c1.76-2,3.12-4.29,1.69-7.23a28,28,0,0,1-1.17-4.25,2.83,2.83,0,0,0-2.33-2.1,5.73,5.73,0,0,0-4.35,1.16c-3.24,2-6.41,4.15-10,5.43a9.36,9.36,0,0,0-5.94,5.67,86.91,86.91,0,0,0-2.51,8.76A3.36,3.36,0,0,0,413,52.69a30.84,30.84,0,0,1,6.58,4.93A6.3,6.3,0,0,0,424.26,59.61Z" />
            <path class="cls-1"
                d="M47.45,35.87c5.16.09,8.41,4.76,6.7,9.33-.29.79-.64,1.67-1.71,1.51a2.21,2.21,0,0,1-2-1.74,7.19,7.19,0,0,1-.08-2.22c.26-2-.36-2.92-2.35-3.23-1.06-.16-2.12-.31-3.17-.48s-1.39-.63-.77-1.6A3.53,3.53,0,0,1,47.45,35.87Zm-3.11,2.46c.33.09.62.18.92.23,1.09.18,2.2.3,3.29.53,1.73.38,2.3,1.15,2.3,2.93,0,.84,0,1.68,0,2.52a1.65,1.65,0,0,0,1.61,1.62c.39,0,1-.73,1.18-1.24A6.37,6.37,0,0,0,47,36.41C45.85,36.54,44.67,36.78,44.34,38.33Z" />
            <path class="cls-1"
                d="M423.17,35.86c1.49,0,2.87.26,3.66,1.74.43.81.17,1.28-.72,1.43-1.36.24-2.72.49-4.08.71a1.76,1.76,0,0,0-1.55,1.94c0,.52,0,1,0,1.55a9.72,9.72,0,0,1,0,1.43,2.56,2.56,0,0,1-2.17,2.07c-1.23.06-1.52-.91-1.79-1.76A6.85,6.85,0,0,1,423.17,35.86Zm3.26,2.52.2-.5a7.87,7.87,0,0,0-2-1.25,5.93,5.93,0,0,0-6.21,1.73A6.17,6.17,0,0,0,417.16,45c.18.48.75,1.21,1.07,1.18a2.64,2.64,0,0,0,1.49-1A2.15,2.15,0,0,0,420,43.9c0-.6,0-1.19,0-1.79,0-2,.55-2.69,2.53-3.06C423.8,38.81,425.12,38.6,426.43,38.38Z" />
        </g>
    </g>
</svg>